<svg xmlns="http://www.w3.org/2000/svg" viewBox="0 0 800 800" width="800" height="800" preserveAspectRatio="xMidYMid slice" role="img" aria-label="Cinematic placeholder frame">
<defs><linearGradient id="sky" x1="0" y1="0" x2="0" y2="1"><stop offset="0%" stop-color="#07030a"/><stop offset="42%" stop-color="#1a0810"/><stop offset="78%" stop-color="#3f101d"/><stop offset="100%" stop-color="#07030a"/></linearGradient><radialGradient id="sun" cx="37.74%" cy="26.95%" r="62%"><stop offset="0%" stop-color="#ffb3c0" stop-opacity="0.72"/><stop offset="34%" stop-color="#d8506a" stop-opacity="0.28"/><stop offset="100%" stop-color="#d8506a" stop-opacity="0"/></radialGradient><linearGradient id="haze" x1="0" y1="0" x2="0" y2="1"><stop offset="0%" stop-color="#d8506a" stop-opacity="0.16"/><stop offset="100%" stop-color="#ffb3c0" stop-opacity="0"/></linearGradient><linearGradient id="water" x1="0" y1="0" x2="0" y2="1"><stop offset="0%" stop-color="#3f101d"/><stop offset="100%" stop-color="#07030a"/></linearGradient><linearGradient id="shaft" x1="0" y1="0" x2="0" y2="1"><stop offset="0%" stop-color="#ffb3c0" stop-opacity="0.85"/><stop offset="100%" stop-color="#d8506a" stop-opacity="0.35"/></linearGradient><linearGradient id="soft" x1="0" y1="0" x2="1" y2="1"><stop offset="0%" stop-color="#1a0810"/><stop offset="60%" stop-color="#07030a"/><stop offset="100%" stop-color="#000000"/></linearGradient><radialGradient id="rim" cx="50%" cy="50%" r="50%"><stop offset="60%" stop-color="#d8506a" stop-opacity="0.34"/><stop offset="100%" stop-color="#d8506a" stop-opacity="0"/></radialGradient><radialGradient id="vig" cx="50%" cy="46%" r="72%"><stop offset="45%" stop-color="#000000" stop-opacity="0"/><stop offset="100%" stop-color="#000000" stop-opacity="0.9"/></radialGradient><linearGradient id="flareG" x1="0" y1="0" x2="1" y2="0"><stop offset="0%" stop-color="#ffb3c0" stop-opacity="0"/><stop offset="50%" stop-color="#ffb3c0" stop-opacity="0.5"/><stop offset="100%" stop-color="#ffb3c0" stop-opacity="0"/></linearGradient><pattern id="scan" width="4" height="4" patternUnits="userSpaceOnUse"><rect x="0" y="0" width="4" height="1" fill="#ffffff" opacity="0.035"/></pattern><pattern id="dust" width="7" height="7" patternUnits="userSpaceOnUse"><rect x="0" y="0" width="1" height="1" fill="#ffffff" opacity="0.07"/><rect x="4" y="3" width="1" height="1" fill="#000000" opacity="0.09"/><rect x="2" y="5" width="1" height="1" fill="#ffffff" opacity="0.045"/></pattern></defs>
<rect x="0" y="0" width="800" height="800" fill="url(#sky)"/>
<rect x="0" y="0" width="800" height="800" fill="url(#sun)"/>
<g fill="#ffb3c0"><circle cx="724.47" cy="390.59" r="25.39" opacity="0.18"/><circle cx="132.16" cy="2.82" r="22.46" opacity="0.23"/><circle cx="321.66" cy="265.56" r="28.28" opacity="0.17"/><circle cx="256.76" cy="505.08" r="12.53" opacity="0.22"/><circle cx="405.32" cy="90" r="15.11" opacity="0.29"/><circle cx="586.17" cy="563.33" r="19.17" opacity="0.15"/><circle cx="38.16" cy="330.56" r="24.04" opacity="0.1"/><circle cx="532.3" cy="191.16" r="29.86" opacity="0.19"/><circle cx="370.21" cy="565.55" r="22.07" opacity="0.2"/><circle cx="112.76" cy="73.66" r="26.24" opacity="0.22"/><circle cx="617.59" cy="325.27" r="26.92" opacity="0.27"/><circle cx="637.75" cy="228.03" r="9.78" opacity="0.1"/><circle cx="389.18" cy="162.03" r="13.75" opacity="0.19"/><circle cx="571.12" cy="59.99" r="36.63" opacity="0.06"/><circle cx="637.48" cy="255.21" r="18.63" opacity="0.12"/><circle cx="748.49" cy="394.37" r="8.56" opacity="0.22"/><circle cx="792.46" cy="215.78" r="11.25" opacity="0.12"/><circle cx="258.65" cy="69.87" r="24.61" opacity="0.28"/><circle cx="215.02" cy="113.76" r="23.44" opacity="0.08"/><circle cx="290.39" cy="641.37" r="39.32" opacity="0.23"/><circle cx="683.27" cy="315.03" r="36.03" opacity="0.29"/><circle cx="664.43" cy="63.03" r="31.7" opacity="0.15"/></g><circle cx="384.59" cy="320" r="205.66" fill="url(#rim)" opacity="0.6"/><g fill="#07030a" opacity="0.96"><ellipse cx="384.59" cy="320" rx="104.04" ry="120.97"/><path d="M 82.15 800 C 118.45 477.27 650.74 477.27 687.03 800 Z"/></g><path d="M 280.55 320 A 104.04 120.97 0 0 1 384.59 199.03" fill="none" stroke="#d8506a" stroke-width="8.47" opacity="0.55"/>

<rect x="0" y="0" width="800" height="800" fill="#d8506a" opacity="0.05" style="mix-blend-mode:overlay"/>
<rect x="0" y="0" width="800" height="800" fill="url(#dust)"/><rect x="0" y="0" width="800" height="800" fill="url(#scan)"/>
<rect x="0" y="0" width="800" height="800" fill="url(#vig)"/>

</svg>