<svg xmlns="http://www.w3.org/2000/svg" viewBox="0 0 800 800" width="800" height="800" preserveAspectRatio="xMidYMid slice" role="img" aria-label="Cinematic placeholder frame">
<defs><linearGradient id="sky" x1="0" y1="0" x2="0" y2="1"><stop offset="0%" stop-color="#03060a"/><stop offset="42%" stop-color="#0a1420"/><stop offset="78%" stop-color="#1b3346"/><stop offset="100%" stop-color="#03060a"/></linearGradient><radialGradient id="sun" cx="22.27%" cy="23.1%" r="62%"><stop offset="0%" stop-color="#e8f5ff" stop-opacity="0.72"/><stop offset="34%" stop-color="#9fc4d8" stop-opacity="0.28"/><stop offset="100%" stop-color="#9fc4d8" stop-opacity="0"/></radialGradient><linearGradient id="haze" x1="0" y1="0" x2="0" y2="1"><stop offset="0%" stop-color="#9fc4d8" stop-opacity="0.16"/><stop offset="100%" stop-color="#e8f5ff" stop-opacity="0"/></linearGradient><linearGradient id="water" x1="0" y1="0" x2="0" y2="1"><stop offset="0%" stop-color="#1b3346"/><stop offset="100%" stop-color="#03060a"/></linearGradient><linearGradient id="shaft" x1="0" y1="0" x2="0" y2="1"><stop offset="0%" stop-color="#e8f5ff" stop-opacity="0.85"/><stop offset="100%" stop-color="#9fc4d8" stop-opacity="0.35"/></linearGradient><linearGradient id="soft" x1="0" y1="0" x2="1" y2="1"><stop offset="0%" stop-color="#0a1420"/><stop offset="60%" stop-color="#03060a"/><stop offset="100%" stop-color="#000000"/></linearGradient><radialGradient id="rim" cx="50%" cy="50%" r="50%"><stop offset="60%" stop-color="#9fc4d8" stop-opacity="0.34"/><stop offset="100%" stop-color="#9fc4d8" stop-opacity="0"/></radialGradient><radialGradient id="vig" cx="50%" cy="46%" r="72%"><stop offset="45%" stop-color="#000000" stop-opacity="0"/><stop offset="100%" stop-color="#000000" stop-opacity="0.9"/></radialGradient><linearGradient id="flareG" x1="0" y1="0" x2="1" y2="0"><stop offset="0%" stop-color="#e8f5ff" stop-opacity="0"/><stop offset="50%" stop-color="#e8f5ff" stop-opacity="0.5"/><stop offset="100%" stop-color="#e8f5ff" stop-opacity="0"/></linearGradient><pattern id="scan" width="4" height="4" patternUnits="userSpaceOnUse"><rect x="0" y="0" width="4" height="1" fill="#ffffff" opacity="0.035"/></pattern><pattern id="dust" width="7" height="7" patternUnits="userSpaceOnUse"><rect x="0" y="0" width="1" height="1" fill="#ffffff" opacity="0.07"/><rect x="4" y="3" width="1" height="1" fill="#000000" opacity="0.09"/><rect x="2" y="5" width="1" height="1" fill="#ffffff" opacity="0.045"/></pattern></defs>
<rect x="0" y="0" width="800" height="800" fill="url(#sky)"/>
<rect x="0" y="0" width="800" height="800" fill="url(#sun)"/>
<g fill="#e8f5ff"><circle cx="457.33" cy="308.18" r="26.71" opacity="0.27"/><circle cx="104.96" cy="538.01" r="17.05" opacity="0.13"/><circle cx="126.33" cy="262" r="13.29" opacity="0.1"/><circle cx="62.16" cy="474.77" r="10.39" opacity="0.21"/><circle cx="770.88" cy="580.89" r="32.78" opacity="0.17"/><circle cx="435.27" cy="475.35" r="8.57" opacity="0.22"/><circle cx="569.1" cy="355.45" r="21.52" opacity="0.12"/><circle cx="155.5" cy="559.75" r="38.02" opacity="0.1"/><circle cx="661.52" cy="274.55" r="31.41" opacity="0.07"/><circle cx="287.53" cy="38.79" r="25.73" opacity="0.22"/><circle cx="255.38" cy="472.39" r="16.8" opacity="0.12"/><circle cx="257.32" cy="329.27" r="36.38" opacity="0.09"/><circle cx="81.36" cy="591.36" r="34.64" opacity="0.14"/><circle cx="193.2" cy="469.24" r="14.42" opacity="0.19"/><circle cx="575.45" cy="560.04" r="29.83" opacity="0.24"/><circle cx="464.49" cy="444.99" r="26.57" opacity="0.05"/><circle cx="109.82" cy="289.73" r="35.03" opacity="0.2"/><circle cx="96.35" cy="343.65" r="10.71" opacity="0.08"/><circle cx="363.04" cy="424.45" r="24.91" opacity="0.13"/><circle cx="773.9" cy="63.46" r="32.63" opacity="0.13"/><circle cx="757.23" cy="367.09" r="23.11" opacity="0.16"/><circle cx="799.31" cy="109.35" r="38.36" opacity="0.12"/></g><circle cx="329.38" cy="320" r="237.79" fill="url(#rim)" opacity="0.6"/><g fill="#03060a" opacity="0.96"><ellipse cx="329.38" cy="320" rx="120.29" ry="139.87"/><path d="M -20.3 800 C 21.66 501.84 637.1 501.84 679.07 800 Z"/></g><path d="M 209.09 320 A 120.29 139.87 0 0 1 329.38 180.13" fill="none" stroke="#9fc4d8" stroke-width="9.79" opacity="0.55"/>

<rect x="0" y="0" width="800" height="800" fill="#9fc4d8" opacity="0.05" style="mix-blend-mode:overlay"/>
<rect x="0" y="0" width="800" height="800" fill="url(#dust)"/><rect x="0" y="0" width="800" height="800" fill="url(#scan)"/>
<rect x="0" y="0" width="800" height="800" fill="url(#vig)"/>

</svg>