<svg xmlns="http://www.w3.org/2000/svg" viewBox="0 0 1600 900" width="1600" height="900" preserveAspectRatio="xMidYMid slice" role="img" aria-label="Cinematic placeholder frame">
<defs><linearGradient id="sky" x1="0" y1="0" x2="0" y2="1"><stop offset="0%" stop-color="#0a0704"/><stop offset="42%" stop-color="#1d1208"/><stop offset="78%" stop-color="#4b2d12"/><stop offset="100%" stop-color="#0a0704"/></linearGradient><radialGradient id="sun" cx="50.23%" cy="36.1%" r="62%"><stop offset="0%" stop-color="#ffd9a0" stop-opacity="0.72"/><stop offset="34%" stop-color="#e8a95c" stop-opacity="0.28"/><stop offset="100%" stop-color="#e8a95c" stop-opacity="0"/></radialGradient><linearGradient id="haze" x1="0" y1="0" x2="0" y2="1"><stop offset="0%" stop-color="#e8a95c" stop-opacity="0.16"/><stop offset="100%" stop-color="#ffd9a0" stop-opacity="0"/></linearGradient><linearGradient id="water" x1="0" y1="0" x2="0" y2="1"><stop offset="0%" stop-color="#4b2d12"/><stop offset="100%" stop-color="#0a0704"/></linearGradient><linearGradient id="shaft" x1="0" y1="0" x2="0" y2="1"><stop offset="0%" stop-color="#ffd9a0" stop-opacity="0.85"/><stop offset="100%" stop-color="#e8a95c" stop-opacity="0.35"/></linearGradient><linearGradient id="soft" x1="0" y1="0" x2="1" y2="1"><stop offset="0%" stop-color="#1d1208"/><stop offset="60%" stop-color="#0a0704"/><stop offset="100%" stop-color="#000000"/></linearGradient><radialGradient id="rim" cx="50%" cy="50%" r="50%"><stop offset="60%" stop-color="#e8a95c" stop-opacity="0.34"/><stop offset="100%" stop-color="#e8a95c" stop-opacity="0"/></radialGradient><radialGradient id="vig" cx="50%" cy="46%" r="72%"><stop offset="45%" stop-color="#000000" stop-opacity="0"/><stop offset="100%" stop-color="#000000" stop-opacity="0.9"/></radialGradient><linearGradient id="flareG" x1="0" y1="0" x2="1" y2="0"><stop offset="0%" stop-color="#ffd9a0" stop-opacity="0"/><stop offset="50%" stop-color="#ffd9a0" stop-opacity="0.5"/><stop offset="100%" stop-color="#ffd9a0" stop-opacity="0"/></linearGradient><pattern id="scan" width="4" height="4" patternUnits="userSpaceOnUse"><rect x="0" y="0" width="4" height="1" fill="#ffffff" opacity="0.035"/></pattern><pattern id="dust" width="7" height="7" patternUnits="userSpaceOnUse"><rect x="0" y="0" width="1" height="1" fill="#ffffff" opacity="0.07"/><rect x="4" y="3" width="1" height="1" fill="#000000" opacity="0.09"/><rect x="2" y="5" width="1" height="1" fill="#ffffff" opacity="0.045"/></pattern></defs>
<rect x="0" y="0" width="1600" height="900" fill="url(#sky)"/>
<rect x="0" y="0" width="1600" height="900" fill="url(#sun)"/>
<path d="M 0 428.96 C 200 428.96 200 460.2 400 460.2 C 600 460.2 600 513.36 800 513.36 C 1000 513.36 1000 459.25 1200 459.25 C 1400 459.25 1400 441.41 1600 441.41 L 1600 900 L 0 900 Z" fill="#4b2d12" opacity="0.5"/><path d="M 0 563.32 C 200 563.32 200 532.56 400 532.56 C 600 532.56 600 604.88 800 604.88 C 1000 604.88 1000 604.19 1200 604.19 C 1400 604.19 1400 540 1600 540 L 1600 900 L 0 900 Z" fill="#1d1208" opacity="0.65"/><path d="M 0 715.84 C 200 715.84 200 634.86 400 634.86 C 600 634.86 600 713.89 800 713.89 C 1000 713.89 1000 661.16 1200 661.16 C 1400 661.16 1400 736.62 1600 736.62 L 1600 900 L 0 900 Z" fill="#1d1208" opacity="0.8"/><path d="M 0 781.58 C 200 781.58 200 832.64 400 832.64 C 600 832.64 600 804.4 800 804.4 C 1000 804.4 1000 734.47 1200 734.47 C 1400 734.47 1400 789.78 1600 789.78 L 1600 900 L 0 900 Z" fill="#0a0704" opacity="0.95"/>
<ellipse cx="803.71" cy="324.91" rx="880" ry="5.4" fill="url(#flareG)" opacity="0.5"/><circle cx="803.71" cy="324.91" r="18" fill="#ffd9a0" opacity="0.35"/>
<rect x="0" y="0" width="1600" height="900" fill="#e8a95c" opacity="0.05" style="mix-blend-mode:overlay"/>
<rect x="0" y="0" width="1600" height="900" fill="url(#dust)"/><rect x="0" y="0" width="1600" height="900" fill="url(#scan)"/>
<rect x="0" y="0" width="1600" height="900" fill="url(#vig)"/>

</svg>