<svg xmlns="http://www.w3.org/2000/svg" viewBox="0 0 1400 933" width="1400" height="933" preserveAspectRatio="xMidYMid slice" role="img" aria-label="Cinematic placeholder frame">
<defs><linearGradient id="sky" x1="0" y1="0" x2="0" y2="1"><stop offset="0%" stop-color="#0a0806"/><stop offset="42%" stop-color="#1b140d"/><stop offset="78%" stop-color="#45331f"/><stop offset="100%" stop-color="#0a0806"/></linearGradient><radialGradient id="sun" cx="58.58%" cy="27.14%" r="62%"><stop offset="0%" stop-color="#f0dcb4" stop-opacity="0.72"/><stop offset="34%" stop-color="#c9a15e" stop-opacity="0.28"/><stop offset="100%" stop-color="#c9a15e" stop-opacity="0"/></radialGradient><linearGradient id="haze" x1="0" y1="0" x2="0" y2="1"><stop offset="0%" stop-color="#c9a15e" stop-opacity="0.16"/><stop offset="100%" stop-color="#f0dcb4" stop-opacity="0"/></linearGradient><linearGradient id="water" x1="0" y1="0" x2="0" y2="1"><stop offset="0%" stop-color="#45331f"/><stop offset="100%" stop-color="#0a0806"/></linearGradient><linearGradient id="shaft" x1="0" y1="0" x2="0" y2="1"><stop offset="0%" stop-color="#f0dcb4" stop-opacity="0.85"/><stop offset="100%" stop-color="#c9a15e" stop-opacity="0.35"/></linearGradient><linearGradient id="soft" x1="0" y1="0" x2="1" y2="1"><stop offset="0%" stop-color="#1b140d"/><stop offset="60%" stop-color="#0a0806"/><stop offset="100%" stop-color="#000000"/></linearGradient><radialGradient id="rim" cx="50%" cy="50%" r="50%"><stop offset="60%" stop-color="#c9a15e" stop-opacity="0.34"/><stop offset="100%" stop-color="#c9a15e" stop-opacity="0"/></radialGradient><radialGradient id="vig" cx="50%" cy="46%" r="72%"><stop offset="45%" stop-color="#000000" stop-opacity="0"/><stop offset="100%" stop-color="#000000" stop-opacity="0.9"/></radialGradient><linearGradient id="flareG" x1="0" y1="0" x2="1" y2="0"><stop offset="0%" stop-color="#f0dcb4" stop-opacity="0"/><stop offset="50%" stop-color="#f0dcb4" stop-opacity="0.5"/><stop offset="100%" stop-color="#f0dcb4" stop-opacity="0"/></linearGradient><pattern id="scan" width="4" height="4" patternUnits="userSpaceOnUse"><rect x="0" y="0" width="4" height="1" fill="#ffffff" opacity="0.035"/></pattern><pattern id="dust" width="7" height="7" patternUnits="userSpaceOnUse"><rect x="0" y="0" width="1" height="1" fill="#ffffff" opacity="0.07"/><rect x="4" y="3" width="1" height="1" fill="#000000" opacity="0.09"/><rect x="2" y="5" width="1" height="1" fill="#ffffff" opacity="0.045"/></pattern></defs>
<rect x="0" y="0" width="1400" height="933" fill="url(#sky)"/>
<rect x="0" y="0" width="1400" height="933" fill="url(#sun)"/>
<rect x="0" y="0" width="1400" height="933" fill="url(#haze)" opacity="0.4"/><g fill="#45331f" opacity="0.55"><circle cx="880.4" cy="690.94" r="69.97"/><ellipse cx="880.4" cy="858.88" rx="118.96" ry="139.95"/><circle cx="158.33" cy="685.22" r="69.97"/><ellipse cx="158.33" cy="853.16" rx="118.96" ry="139.95"/><circle cx="607.73" cy="671.05" r="69.97"/><ellipse cx="607.73" cy="838.99" rx="118.96" ry="139.95"/><circle cx="1269.48" cy="659.66" r="69.97"/><ellipse cx="1269.48" cy="827.6" rx="118.96" ry="139.95"/><circle cx="357.11" cy="665.33" r="69.97"/><ellipse cx="357.11" cy="833.27" rx="118.96" ry="139.95"/><circle cx="651.81" cy="667.14" r="69.97"/><ellipse cx="651.81" cy="835.08" rx="118.96" ry="139.95"/></g><g fill="#1b140d" opacity="0.73"><circle cx="5.31" cy="781.86" r="55.98"/><ellipse cx="5.31" cy="916.21" rx="95.17" ry="111.96"/><circle cx="1041.58" cy="772.68" r="55.98"/><ellipse cx="1041.58" cy="907.03" rx="95.17" ry="111.96"/><circle cx="290.86" cy="768.2" r="55.98"/><ellipse cx="290.86" cy="902.55" rx="95.17" ry="111.96"/><circle cx="435.03" cy="806.65" r="55.98"/><ellipse cx="435.03" cy="941.01" rx="95.17" ry="111.96"/><circle cx="268.11" cy="802.93" r="55.98"/><ellipse cx="268.11" cy="937.28" rx="95.17" ry="111.96"/><circle cx="661.58" cy="787.12" r="55.98"/><ellipse cx="661.58" cy="921.47" rx="95.17" ry="111.96"/><circle cx="1266.76" cy="767.81" r="55.98"/><ellipse cx="1266.76" cy="902.16" rx="95.17" ry="111.96"/><circle cx="918.41" cy="807.29" r="55.98"/><ellipse cx="918.41" cy="941.64" rx="95.17" ry="111.96"/><circle cx="1097.3" cy="803.13" r="55.98"/><ellipse cx="1097.3" cy="937.48" rx="95.17" ry="111.96"/><circle cx="228.58" cy="797.64" r="55.98"/><ellipse cx="228.58" cy="931.99" rx="95.17" ry="111.96"/><circle cx="909.83" cy="792.55" r="55.98"/><ellipse cx="909.83" cy="926.9" rx="95.17" ry="111.96"/><circle cx="1222.6" cy="799.26" r="55.98"/><ellipse cx="1222.6" cy="933.62" rx="95.17" ry="111.96"/></g><g fill="#0a0806" opacity="0.91"><circle cx="-26.8" cy="871.7" r="41.99"/><ellipse cx="-26.8" cy="972.47" rx="71.37" ry="83.97"/><circle cx="-51.63" cy="920.05" r="41.99"/><ellipse cx="-51.63" cy="1020.81" rx="71.37" ry="83.97"/><circle cx="744.96" cy="896.42" r="41.99"/><ellipse cx="744.96" cy="997.18" rx="71.37" ry="83.97"/><circle cx="73.06" cy="880.22" r="41.99"/><ellipse cx="73.06" cy="980.98" rx="71.37" ry="83.97"/><circle cx="1200.65" cy="887.58" r="41.99"/><ellipse cx="1200.65" cy="988.35" rx="71.37" ry="83.97"/><circle cx="1439.38" cy="894.3" r="41.99"/><ellipse cx="1439.38" cy="995.06" rx="71.37" ry="83.97"/><circle cx="503.66" cy="878.51" r="41.99"/><ellipse cx="503.66" cy="979.28" rx="71.37" ry="83.97"/><circle cx="248.5" cy="899.98" r="41.99"/><ellipse cx="248.5" cy="1000.74" rx="71.37" ry="83.97"/><circle cx="1233.73" cy="889.47" r="41.99"/><ellipse cx="1233.73" cy="990.23" rx="71.37" ry="83.97"/><circle cx="987.74" cy="900.03" r="41.99"/><ellipse cx="987.74" cy="1000.79" rx="71.37" ry="83.97"/><circle cx="922.68" cy="876.48" r="41.99"/><ellipse cx="922.68" cy="977.24" rx="71.37" ry="83.97"/><circle cx="472.44" cy="868.6" r="41.99"/><ellipse cx="472.44" cy="969.36" rx="71.37" ry="83.97"/><circle cx="962.82" cy="869.87" r="41.99"/><ellipse cx="962.82" cy="970.63" rx="71.37" ry="83.97"/><circle cx="916.77" cy="897.43" r="41.99"/><ellipse cx="916.77" cy="998.19" rx="71.37" ry="83.97"/><circle cx="1216.1" cy="899.53" r="41.99"/><ellipse cx="1216.1" cy="1000.29" rx="71.37" ry="83.97"/><circle cx="882.27" cy="896.74" r="41.99"/><ellipse cx="882.27" cy="997.51" rx="71.37" ry="83.97"/><circle cx="-13.79" cy="876.82" r="41.99"/><ellipse cx="-13.79" cy="977.58" rx="71.37" ry="83.97"/><circle cx="1000.42" cy="917.58" r="41.99"/><ellipse cx="1000.42" cy="1018.35" rx="71.37" ry="83.97"/></g>
<ellipse cx="820.09" cy="253.18" rx="770" ry="5.6" fill="url(#flareG)" opacity="0.5"/><circle cx="820.09" cy="253.18" r="18.66" fill="#f0dcb4" opacity="0.35"/>
<rect x="0" y="0" width="1400" height="933" fill="#c9a15e" opacity="0.05" style="mix-blend-mode:overlay"/>
<rect x="0" y="0" width="1400" height="933" fill="url(#dust)"/><rect x="0" y="0" width="1400" height="933" fill="url(#scan)"/>
<rect x="0" y="0" width="1400" height="933" fill="url(#vig)"/>

</svg>