<svg xmlns="http://www.w3.org/2000/svg" viewBox="0 0 1600 900" width="1600" height="900" preserveAspectRatio="xMidYMid slice" role="img" aria-label="Cinematic placeholder frame">
<defs><linearGradient id="sky" x1="0" y1="0" x2="0" y2="1"><stop offset="0%" stop-color="#0a0806"/><stop offset="42%" stop-color="#1b140d"/><stop offset="78%" stop-color="#45331f"/><stop offset="100%" stop-color="#0a0806"/></linearGradient><radialGradient id="sun" cx="76.21%" cy="18.5%" r="62%"><stop offset="0%" stop-color="#f0dcb4" stop-opacity="0.72"/><stop offset="34%" stop-color="#c9a15e" stop-opacity="0.28"/><stop offset="100%" stop-color="#c9a15e" stop-opacity="0"/></radialGradient><linearGradient id="haze" x1="0" y1="0" x2="0" y2="1"><stop offset="0%" stop-color="#c9a15e" stop-opacity="0.16"/><stop offset="100%" stop-color="#f0dcb4" stop-opacity="0"/></linearGradient><linearGradient id="water" x1="0" y1="0" x2="0" y2="1"><stop offset="0%" stop-color="#45331f"/><stop offset="100%" stop-color="#0a0806"/></linearGradient><linearGradient id="shaft" x1="0" y1="0" x2="0" y2="1"><stop offset="0%" stop-color="#f0dcb4" stop-opacity="0.85"/><stop offset="100%" stop-color="#c9a15e" stop-opacity="0.35"/></linearGradient><linearGradient id="soft" x1="0" y1="0" x2="1" y2="1"><stop offset="0%" stop-color="#1b140d"/><stop offset="60%" stop-color="#0a0806"/><stop offset="100%" stop-color="#000000"/></linearGradient><radialGradient id="rim" cx="50%" cy="50%" r="50%"><stop offset="60%" stop-color="#c9a15e" stop-opacity="0.34"/><stop offset="100%" stop-color="#c9a15e" stop-opacity="0"/></radialGradient><radialGradient id="vig" cx="50%" cy="46%" r="72%"><stop offset="45%" stop-color="#000000" stop-opacity="0"/><stop offset="100%" stop-color="#000000" stop-opacity="0.9"/></radialGradient><linearGradient id="flareG" x1="0" y1="0" x2="1" y2="0"><stop offset="0%" stop-color="#f0dcb4" stop-opacity="0"/><stop offset="50%" stop-color="#f0dcb4" stop-opacity="0.5"/><stop offset="100%" stop-color="#f0dcb4" stop-opacity="0"/></linearGradient><pattern id="scan" width="4" height="4" patternUnits="userSpaceOnUse"><rect x="0" y="0" width="4" height="1" fill="#ffffff" opacity="0.035"/></pattern><pattern id="dust" width="7" height="7" patternUnits="userSpaceOnUse"><rect x="0" y="0" width="1" height="1" fill="#ffffff" opacity="0.07"/><rect x="4" y="3" width="1" height="1" fill="#000000" opacity="0.09"/><rect x="2" y="5" width="1" height="1" fill="#ffffff" opacity="0.045"/></pattern></defs>
<rect x="0" y="0" width="1600" height="900" fill="url(#sky)"/>
<rect x="0" y="0" width="1600" height="900" fill="url(#sun)"/>
<rect x="0" y="41.87" width="1600" height="748.8" fill="#f0dcb4" opacity="0.05"/><g transform="rotate(0.79 800 450)"><rect x="-160" y="182.27" width="1920" height="468" fill="#0a0806"/><g fill="#f0dcb4" opacity="0.22"><rect x="-128" y="201.74" width="35.1" height="30.42" rx="7.02"/><rect x="-128" y="600.38" width="35.1" height="30.42" rx="7.02"/><rect x="-54.29" y="201.74" width="35.1" height="30.42" rx="7.02"/><rect x="-54.29" y="600.38" width="35.1" height="30.42" rx="7.02"/><rect x="19.42" y="201.74" width="35.1" height="30.42" rx="7.02"/><rect x="19.42" y="600.38" width="35.1" height="30.42" rx="7.02"/><rect x="93.13" y="201.74" width="35.1" height="30.42" rx="7.02"/><rect x="93.13" y="600.38" width="35.1" height="30.42" rx="7.02"/><rect x="166.84" y="201.74" width="35.1" height="30.42" rx="7.02"/><rect x="166.84" y="600.38" width="35.1" height="30.42" rx="7.02"/><rect x="240.55" y="201.74" width="35.1" height="30.42" rx="7.02"/><rect x="240.55" y="600.38" width="35.1" height="30.42" rx="7.02"/><rect x="314.26" y="201.74" width="35.1" height="30.42" rx="7.02"/><rect x="314.26" y="600.38" width="35.1" height="30.42" rx="7.02"/><rect x="387.97" y="201.74" width="35.1" height="30.42" rx="7.02"/><rect x="387.97" y="600.38" width="35.1" height="30.42" rx="7.02"/><rect x="461.68" y="201.74" width="35.1" height="30.42" rx="7.02"/><rect x="461.68" y="600.38" width="35.1" height="30.42" rx="7.02"/><rect x="535.39" y="201.74" width="35.1" height="30.42" rx="7.02"/><rect x="535.39" y="600.38" width="35.1" height="30.42" rx="7.02"/><rect x="609.1" y="201.74" width="35.1" height="30.42" rx="7.02"/><rect x="609.1" y="600.38" width="35.1" height="30.42" rx="7.02"/><rect x="682.81" y="201.74" width="35.1" height="30.42" rx="7.02"/><rect x="682.81" y="600.38" width="35.1" height="30.42" rx="7.02"/><rect x="756.52" y="201.74" width="35.1" height="30.42" rx="7.02"/><rect x="756.52" y="600.38" width="35.1" height="30.42" rx="7.02"/><rect x="830.23" y="201.74" width="35.1" height="30.42" rx="7.02"/><rect x="830.23" y="600.38" width="35.1" height="30.42" rx="7.02"/><rect x="903.94" y="201.74" width="35.1" height="30.42" rx="7.02"/><rect x="903.94" y="600.38" width="35.1" height="30.42" rx="7.02"/><rect x="977.65" y="201.74" width="35.1" height="30.42" rx="7.02"/><rect x="977.65" y="600.38" width="35.1" height="30.42" rx="7.02"/><rect x="1051.36" y="201.74" width="35.1" height="30.42" rx="7.02"/><rect x="1051.36" y="600.38" width="35.1" height="30.42" rx="7.02"/><rect x="1125.07" y="201.74" width="35.1" height="30.42" rx="7.02"/><rect x="1125.07" y="600.38" width="35.1" height="30.42" rx="7.02"/><rect x="1198.78" y="201.74" width="35.1" height="30.42" rx="7.02"/><rect x="1198.78" y="600.38" width="35.1" height="30.42" rx="7.02"/><rect x="1272.49" y="201.74" width="35.1" height="30.42" rx="7.02"/><rect x="1272.49" y="600.38" width="35.1" height="30.42" rx="7.02"/><rect x="1346.2" y="201.74" width="35.1" height="30.42" rx="7.02"/><rect x="1346.2" y="600.38" width="35.1" height="30.42" rx="7.02"/><rect x="1419.91" y="201.74" width="35.1" height="30.42" rx="7.02"/><rect x="1419.91" y="600.38" width="35.1" height="30.42" rx="7.02"/><rect x="1493.62" y="201.74" width="35.1" height="30.42" rx="7.02"/><rect x="1493.62" y="600.38" width="35.1" height="30.42" rx="7.02"/><rect x="1567.33" y="201.74" width="35.1" height="30.42" rx="7.02"/><rect x="1567.33" y="600.38" width="35.1" height="30.42" rx="7.02"/><rect x="1641.04" y="201.74" width="35.1" height="30.42" rx="7.02"/><rect x="1641.04" y="600.38" width="35.1" height="30.42" rx="7.02"/><rect x="1714.75" y="201.74" width="35.1" height="30.42" rx="7.02"/><rect x="1714.75" y="600.38" width="35.1" height="30.42" rx="7.02"/><rect x="1788.46" y="201.74" width="35.1" height="30.42" rx="7.02"/><rect x="1788.46" y="600.38" width="35.1" height="30.42" rx="7.02"/></g><rect x="-281.72" y="246.16" width="469.53" height="340.24" fill="#1b140d"/><rect x="-281.72" y="246.16" width="469.53" height="340.24" fill="#45331f" opacity="0.9"/><circle cx="-46.95" cy="368.64" r="44.23" fill="#0a0806" opacity="0.9"/><ellipse cx="-46.95" cy="586.39" rx="115.68" ry="122.48" fill="#0a0806" opacity="0.9"/><rect x="-281.72" y="246.16" width="469.53" height="340.24" fill="none" stroke="#f0dcb4" stroke-width="2" opacity="0.1"/><rect x="220.68" y="246.16" width="469.53" height="340.24" fill="#1b140d"/><rect x="220.68" y="246.16" width="469.53" height="340.24" fill="#45331f" opacity="0.83"/><polygon points="220.68,586.39 455.44,348.23 690.2,586.39" fill="#0a0806" opacity="0.85"/><rect x="220.68" y="246.16" width="469.53" height="340.24" fill="none" stroke="#f0dcb4" stroke-width="2" opacity="0.1"/><rect x="723.07" y="246.16" width="469.53" height="340.24" fill="#1b140d"/><rect x="723.07" y="246.16" width="469.53" height="340.24" fill="#45331f" opacity="0.74"/><rect x="723.07" y="433.29" width="469.53" height="153.11" fill="#0a0806" opacity="0.8"/><circle cx="1061.13" cy="348.23" r="27.22" fill="#c9a15e" opacity="0.7"/><rect x="723.07" y="246.16" width="469.53" height="340.24" fill="none" stroke="#f0dcb4" stroke-width="2" opacity="0.1"/><rect x="1225.46" y="246.16" width="469.53" height="340.24" fill="#1b140d"/><rect x="1225.46" y="246.16" width="469.53" height="340.24" fill="#45331f" opacity="0.62"/><circle cx="1460.22" cy="368.64" r="44.23" fill="#0a0806" opacity="0.9"/><ellipse cx="1460.22" cy="586.39" rx="115.68" ry="122.48" fill="#0a0806" opacity="0.9"/><rect x="1225.46" y="246.16" width="469.53" height="340.24" fill="none" stroke="#f0dcb4" stroke-width="2" opacity="0.1"/><rect x="1727.85" y="246.16" width="469.53" height="340.24" fill="#1b140d"/><rect x="1727.85" y="246.16" width="469.53" height="340.24" fill="#45331f" opacity="0.5"/><polygon points="1727.85,586.39 1962.62,348.23 2197.38,586.39" fill="#0a0806" opacity="0.85"/><rect x="1727.85" y="246.16" width="469.53" height="340.24" fill="none" stroke="#f0dcb4" stroke-width="2" opacity="0.1"/></g>
<ellipse cx="1219.36" cy="166.47" rx="880" ry="5.4" fill="url(#flareG)" opacity="0.5"/><circle cx="1219.36" cy="166.47" r="18" fill="#f0dcb4" opacity="0.35"/>
<rect x="0" y="0" width="1600" height="900" fill="#c9a15e" opacity="0.05" style="mix-blend-mode:overlay"/>
<rect x="0" y="0" width="1600" height="900" fill="url(#dust)"/><rect x="0" y="0" width="1600" height="900" fill="url(#scan)"/>
<rect x="0" y="0" width="1600" height="900" fill="url(#vig)"/>

</svg>