<svg xmlns="http://www.w3.org/2000/svg" viewBox="0 0 1600 900" width="1600" height="900" preserveAspectRatio="xMidYMid slice" role="img" aria-label="Cinematic placeholder frame">
<defs><linearGradient id="sky" x1="0" y1="0" x2="0" y2="1"><stop offset="0%" stop-color="#050403"/><stop offset="42%" stop-color="#16110a"/><stop offset="78%" stop-color="#382a16"/><stop offset="100%" stop-color="#050403"/></linearGradient><radialGradient id="sun" cx="70.28%" cy="16.95%" r="62%"><stop offset="0%" stop-color="#f0cf90" stop-opacity="0.72"/><stop offset="34%" stop-color="#d9a34a" stop-opacity="0.28"/><stop offset="100%" stop-color="#d9a34a" stop-opacity="0"/></radialGradient><linearGradient id="haze" x1="0" y1="0" x2="0" y2="1"><stop offset="0%" stop-color="#d9a34a" stop-opacity="0.16"/><stop offset="100%" stop-color="#f0cf90" stop-opacity="0"/></linearGradient><linearGradient id="water" x1="0" y1="0" x2="0" y2="1"><stop offset="0%" stop-color="#382a16"/><stop offset="100%" stop-color="#050403"/></linearGradient><linearGradient id="shaft" x1="0" y1="0" x2="0" y2="1"><stop offset="0%" stop-color="#f0cf90" stop-opacity="0.85"/><stop offset="100%" stop-color="#d9a34a" stop-opacity="0.35"/></linearGradient><linearGradient id="soft" x1="0" y1="0" x2="1" y2="1"><stop offset="0%" stop-color="#16110a"/><stop offset="60%" stop-color="#050403"/><stop offset="100%" stop-color="#000000"/></linearGradient><radialGradient id="rim" cx="50%" cy="50%" r="50%"><stop offset="60%" stop-color="#d9a34a" stop-opacity="0.34"/><stop offset="100%" stop-color="#d9a34a" stop-opacity="0"/></radialGradient><radialGradient id="vig" cx="50%" cy="46%" r="72%"><stop offset="45%" stop-color="#000000" stop-opacity="0"/><stop offset="100%" stop-color="#000000" stop-opacity="0.9"/></radialGradient><linearGradient id="flareG" x1="0" y1="0" x2="1" y2="0"><stop offset="0%" stop-color="#f0cf90" stop-opacity="0"/><stop offset="50%" stop-color="#f0cf90" stop-opacity="0.5"/><stop offset="100%" stop-color="#f0cf90" stop-opacity="0"/></linearGradient><pattern id="scan" width="4" height="4" patternUnits="userSpaceOnUse"><rect x="0" y="0" width="4" height="1" fill="#ffffff" opacity="0.035"/></pattern><pattern id="dust" width="7" height="7" patternUnits="userSpaceOnUse"><rect x="0" y="0" width="1" height="1" fill="#ffffff" opacity="0.07"/><rect x="4" y="3" width="1" height="1" fill="#000000" opacity="0.09"/><rect x="2" y="5" width="1" height="1" fill="#ffffff" opacity="0.045"/></pattern></defs>
<rect x="0" y="0" width="1600" height="900" fill="url(#sky)"/>
<rect x="0" y="0" width="1600" height="900" fill="url(#sun)"/>
<rect x="0" y="774" width="1600" height="126" fill="#050403" opacity="0.85"/><rect x="315" y="270" width="10" height="504" fill="#050403"/><g stroke="#050403" stroke-width="8" stroke-linecap="round"><line x1="320" y1="684" x2="250" y2="774"/><line x1="320" y1="684" x2="390" y2="774"/><line x1="320" y1="684" x2="328" y2="774"/></g><polygon points="395,280 395,390 1600,582 1600,114" fill="#f0cf90" opacity="0.09"/><rect x="245" y="270" width="150" height="130" rx="10" fill="#050403"/><ellipse cx="395" cy="335" rx="12" ry="52" fill="#f0cf90" opacity="0.8"/><g fill="#050403"><polygon points="387.5,270 470,226 470,250 387.5,282"/><polygon points="387.5,400 470,444 470,420 387.5,388"/></g><circle cx="237" cy="361" r="14" fill="#050403"/><rect x="891" y="198" width="10" height="576" fill="#050403"/><g stroke="#050403" stroke-width="8" stroke-linecap="round"><line x1="896" y1="684" x2="826" y2="774"/><line x1="896" y1="684" x2="966" y2="774"/><line x1="896" y1="684" x2="904" y2="774"/></g><rect x="801" y="198" width="190" height="240" rx="8" fill="#050403"/><rect x="815" y="212" width="162" height="212" fill="#f0cf90" opacity="0.34"/><rect x="725" y="150" width="342" height="336" fill="#f0cf90" opacity="0.05"/><rect x="1307" y="306" width="10" height="468" fill="#050403"/><g stroke="#050403" stroke-width="8" stroke-linecap="round"><line x1="1312" y1="684" x2="1242" y2="774"/><line x1="1312" y1="684" x2="1382" y2="774"/><line x1="1312" y1="684" x2="1320" y2="774"/></g><rect x="1301" y="306" width="22" height="300" rx="11" fill="#050403"/><rect x="1306" y="314" width="12" height="284" rx="6" fill="#d9a34a" opacity="0.85"/><rect x="1272" y="286" width="80" height="340" fill="#d9a34a" opacity="0.07"/><g fill="none" stroke="#050403" stroke-width="9" opacity="0.9"><path d="M 160 830.7 q 144 -37.8 288 0 q 144 37.8 288 0"/></g>
<ellipse cx="1124.54" cy="152.57" rx="880" ry="5.4" fill="url(#flareG)" opacity="0.5"/><circle cx="1124.54" cy="152.57" r="18" fill="#f0cf90" opacity="0.35"/>
<rect x="0" y="0" width="1600" height="900" fill="#d9a34a" opacity="0.05" style="mix-blend-mode:overlay"/>
<rect x="0" y="0" width="1600" height="900" fill="url(#dust)"/><rect x="0" y="0" width="1600" height="900" fill="url(#scan)"/>
<rect x="0" y="0" width="1600" height="900" fill="url(#vig)"/>

</svg>