<svg xmlns="http://www.w3.org/2000/svg" viewBox="0 0 1200 1500" width="1200" height="1500" preserveAspectRatio="xMidYMid slice" role="img" aria-label="Cinematic placeholder frame">
<defs><linearGradient id="sky" x1="0" y1="0" x2="0" y2="1"><stop offset="0%" stop-color="#050403"/><stop offset="42%" stop-color="#16110a"/><stop offset="78%" stop-color="#382a16"/><stop offset="100%" stop-color="#050403"/></linearGradient><radialGradient id="sun" cx="51.63%" cy="39.34%" r="62%"><stop offset="0%" stop-color="#f0cf90" stop-opacity="0.72"/><stop offset="34%" stop-color="#d9a34a" stop-opacity="0.28"/><stop offset="100%" stop-color="#d9a34a" stop-opacity="0"/></radialGradient><linearGradient id="haze" x1="0" y1="0" x2="0" y2="1"><stop offset="0%" stop-color="#d9a34a" stop-opacity="0.16"/><stop offset="100%" stop-color="#f0cf90" stop-opacity="0"/></linearGradient><linearGradient id="water" x1="0" y1="0" x2="0" y2="1"><stop offset="0%" stop-color="#382a16"/><stop offset="100%" stop-color="#050403"/></linearGradient><linearGradient id="shaft" x1="0" y1="0" x2="0" y2="1"><stop offset="0%" stop-color="#f0cf90" stop-opacity="0.85"/><stop offset="100%" stop-color="#d9a34a" stop-opacity="0.35"/></linearGradient><linearGradient id="soft" x1="0" y1="0" x2="1" y2="1"><stop offset="0%" stop-color="#16110a"/><stop offset="60%" stop-color="#050403"/><stop offset="100%" stop-color="#000000"/></linearGradient><radialGradient id="rim" cx="50%" cy="50%" r="50%"><stop offset="60%" stop-color="#d9a34a" stop-opacity="0.34"/><stop offset="100%" stop-color="#d9a34a" stop-opacity="0"/></radialGradient><radialGradient id="vig" cx="50%" cy="46%" r="72%"><stop offset="45%" stop-color="#000000" stop-opacity="0"/><stop offset="100%" stop-color="#000000" stop-opacity="0.9"/></radialGradient><linearGradient id="flareG" x1="0" y1="0" x2="1" y2="0"><stop offset="0%" stop-color="#f0cf90" stop-opacity="0"/><stop offset="50%" stop-color="#f0cf90" stop-opacity="0.5"/><stop offset="100%" stop-color="#f0cf90" stop-opacity="0"/></linearGradient><pattern id="scan" width="4" height="4" patternUnits="userSpaceOnUse"><rect x="0" y="0" width="4" height="1" fill="#ffffff" opacity="0.035"/></pattern><pattern id="dust" width="7" height="7" patternUnits="userSpaceOnUse"><rect x="0" y="0" width="1" height="1" fill="#ffffff" opacity="0.07"/><rect x="4" y="3" width="1" height="1" fill="#000000" opacity="0.09"/><rect x="2" y="5" width="1" height="1" fill="#ffffff" opacity="0.045"/></pattern></defs>
<rect x="0" y="0" width="1200" height="1500" fill="url(#sky)"/>
<rect x="0" y="0" width="1200" height="1500" fill="url(#sun)"/>
<rect x="0" y="1170" width="1200" height="330" fill="#050403" opacity="0.85"/><rect x="0" y="1168.5" width="1200" height="3" fill="#f0cf90" opacity="0.12"/><g><rect x="160.61" y="1006.82" width="51.33" height="163.18" rx="6.16" fill="#050403"/><rect x="157.61" y="1045.98" width="57.33" height="12.24" fill="#16110a" opacity="0.9"/><rect x="164.27" y="1045.98" width="1.8" height="12.24" fill="#050403" opacity="0.6"/><rect x="171.61" y="1045.98" width="1.8" height="12.24" fill="#050403" opacity="0.6"/><rect x="178.94" y="1045.98" width="1.8" height="12.24" fill="#050403" opacity="0.6"/><rect x="186.27" y="1045.98" width="1.8" height="12.24" fill="#050403" opacity="0.6"/><rect x="193.6" y="1045.98" width="1.8" height="12.24" fill="#050403" opacity="0.6"/><rect x="200.94" y="1045.98" width="1.8" height="12.24" fill="#050403" opacity="0.6"/><rect x="208.27" y="1045.98" width="1.8" height="12.24" fill="#050403" opacity="0.6"/><rect x="157.61" y="1078.62" width="57.33" height="12.24" fill="#16110a" opacity="0.9"/><rect x="164.27" y="1078.62" width="1.8" height="12.24" fill="#050403" opacity="0.6"/><rect x="171.61" y="1078.62" width="1.8" height="12.24" fill="#050403" opacity="0.6"/><rect x="178.94" y="1078.62" width="1.8" height="12.24" fill="#050403" opacity="0.6"/><rect x="186.27" y="1078.62" width="1.8" height="12.24" fill="#050403" opacity="0.6"/><rect x="193.6" y="1078.62" width="1.8" height="12.24" fill="#050403" opacity="0.6"/><rect x="200.94" y="1078.62" width="1.8" height="12.24" fill="#050403" opacity="0.6"/><rect x="208.27" y="1078.62" width="1.8" height="12.24" fill="#050403" opacity="0.6"/><rect x="157.61" y="1111.25" width="57.33" height="12.24" fill="#16110a" opacity="0.9"/><rect x="164.27" y="1111.25" width="1.8" height="12.24" fill="#050403" opacity="0.6"/><rect x="171.61" y="1111.25" width="1.8" height="12.24" fill="#050403" opacity="0.6"/><rect x="178.94" y="1111.25" width="1.8" height="12.24" fill="#050403" opacity="0.6"/><rect x="186.27" y="1111.25" width="1.8" height="12.24" fill="#050403" opacity="0.6"/><rect x="193.6" y="1111.25" width="1.8" height="12.24" fill="#050403" opacity="0.6"/><rect x="200.94" y="1111.25" width="1.8" height="12.24" fill="#050403" opacity="0.6"/><rect x="208.27" y="1111.25" width="1.8" height="12.24" fill="#050403" opacity="0.6"/><ellipse cx="186.27" cy="1016.61" rx="21.56" ry="8.16" fill="#382a16"/><ellipse cx="186.27" cy="1016.61" rx="15.4" ry="5.22" fill="#f0cf90" opacity="0.45"/><rect x="209.69" y="1023.13" width="2.25" height="130.55" fill="#f0cf90" opacity="0.3"/></g><g><rect x="351.25" y="989.61" width="58.53" height="180.39" rx="7.02" fill="#050403"/><rect x="348.25" y="1032.9" width="64.53" height="13.53" fill="#16110a" opacity="0.9"/><rect x="355.43" y="1032.9" width="1.8" height="13.53" fill="#050403" opacity="0.6"/><rect x="363.79" y="1032.9" width="1.8" height="13.53" fill="#050403" opacity="0.6"/><rect x="372.15" y="1032.9" width="1.8" height="13.53" fill="#050403" opacity="0.6"/><rect x="380.52" y="1032.9" width="1.8" height="13.53" fill="#050403" opacity="0.6"/><rect x="388.88" y="1032.9" width="1.8" height="13.53" fill="#050403" opacity="0.6"/><rect x="397.24" y="1032.9" width="1.8" height="13.53" fill="#050403" opacity="0.6"/><rect x="405.6" y="1032.9" width="1.8" height="13.53" fill="#050403" opacity="0.6"/><rect x="348.25" y="1068.98" width="64.53" height="13.53" fill="#16110a" opacity="0.9"/><rect x="355.43" y="1068.98" width="1.8" height="13.53" fill="#050403" opacity="0.6"/><rect x="363.79" y="1068.98" width="1.8" height="13.53" fill="#050403" opacity="0.6"/><rect x="372.15" y="1068.98" width="1.8" height="13.53" fill="#050403" opacity="0.6"/><rect x="380.52" y="1068.98" width="1.8" height="13.53" fill="#050403" opacity="0.6"/><rect x="388.88" y="1068.98" width="1.8" height="13.53" fill="#050403" opacity="0.6"/><rect x="397.24" y="1068.98" width="1.8" height="13.53" fill="#050403" opacity="0.6"/><rect x="405.6" y="1068.98" width="1.8" height="13.53" fill="#050403" opacity="0.6"/><rect x="348.25" y="1105.06" width="64.53" height="13.53" fill="#16110a" opacity="0.9"/><rect x="355.43" y="1105.06" width="1.8" height="13.53" fill="#050403" opacity="0.6"/><rect x="363.79" y="1105.06" width="1.8" height="13.53" fill="#050403" opacity="0.6"/><rect x="372.15" y="1105.06" width="1.8" height="13.53" fill="#050403" opacity="0.6"/><rect x="380.52" y="1105.06" width="1.8" height="13.53" fill="#050403" opacity="0.6"/><rect x="388.88" y="1105.06" width="1.8" height="13.53" fill="#050403" opacity="0.6"/><rect x="397.24" y="1105.06" width="1.8" height="13.53" fill="#050403" opacity="0.6"/><rect x="405.6" y="1105.06" width="1.8" height="13.53" fill="#050403" opacity="0.6"/><ellipse cx="380.52" cy="1000.43" rx="24.58" ry="9.02" fill="#382a16"/><ellipse cx="380.52" cy="1000.43" rx="17.56" ry="5.77" fill="#d9a34a" opacity="0.45"/><rect x="407.53" y="1007.65" width="2.25" height="144.32" fill="#f0cf90" opacity="0.3"/></g><g><rect x="545.51" y="973.11" width="53.84" height="196.89" rx="6.46" fill="#050403"/><rect x="542.51" y="1020.36" width="59.84" height="14.77" fill="#16110a" opacity="0.9"/><rect x="549.36" y="1020.36" width="1.8" height="14.77" fill="#050403" opacity="0.6"/><rect x="557.05" y="1020.36" width="1.8" height="14.77" fill="#050403" opacity="0.6"/><rect x="564.74" y="1020.36" width="1.8" height="14.77" fill="#050403" opacity="0.6"/><rect x="572.43" y="1020.36" width="1.8" height="14.77" fill="#050403" opacity="0.6"/><rect x="580.12" y="1020.36" width="1.8" height="14.77" fill="#050403" opacity="0.6"/><rect x="587.81" y="1020.36" width="1.8" height="14.77" fill="#050403" opacity="0.6"/><rect x="595.51" y="1020.36" width="1.8" height="14.77" fill="#050403" opacity="0.6"/><rect x="542.51" y="1059.74" width="59.84" height="14.77" fill="#16110a" opacity="0.9"/><rect x="549.36" y="1059.74" width="1.8" height="14.77" fill="#050403" opacity="0.6"/><rect x="557.05" y="1059.74" width="1.8" height="14.77" fill="#050403" opacity="0.6"/><rect x="564.74" y="1059.74" width="1.8" height="14.77" fill="#050403" opacity="0.6"/><rect x="572.43" y="1059.74" width="1.8" height="14.77" fill="#050403" opacity="0.6"/><rect x="580.12" y="1059.74" width="1.8" height="14.77" fill="#050403" opacity="0.6"/><rect x="587.81" y="1059.74" width="1.8" height="14.77" fill="#050403" opacity="0.6"/><rect x="595.51" y="1059.74" width="1.8" height="14.77" fill="#050403" opacity="0.6"/><rect x="542.51" y="1099.12" width="59.84" height="14.77" fill="#16110a" opacity="0.9"/><rect x="549.36" y="1099.12" width="1.8" height="14.77" fill="#050403" opacity="0.6"/><rect x="557.05" y="1099.12" width="1.8" height="14.77" fill="#050403" opacity="0.6"/><rect x="564.74" y="1099.12" width="1.8" height="14.77" fill="#050403" opacity="0.6"/><rect x="572.43" y="1099.12" width="1.8" height="14.77" fill="#050403" opacity="0.6"/><rect x="580.12" y="1099.12" width="1.8" height="14.77" fill="#050403" opacity="0.6"/><rect x="587.81" y="1099.12" width="1.8" height="14.77" fill="#050403" opacity="0.6"/><rect x="595.51" y="1099.12" width="1.8" height="14.77" fill="#050403" opacity="0.6"/><ellipse cx="572.43" cy="984.92" rx="22.61" ry="9.84" fill="#382a16"/><ellipse cx="572.43" cy="984.92" rx="16.15" ry="6.3" fill="#f0cf90" opacity="0.45"/><rect x="597.1" y="992.8" width="2.25" height="157.51" fill="#f0cf90" opacity="0.3"/></g><g><rect x="752.76" y="953.24" width="58.38" height="216.76" rx="7.01" fill="#050403"/><rect x="749.76" y="1005.26" width="64.38" height="16.26" fill="#16110a" opacity="0.9"/><rect x="756.93" y="1005.26" width="1.8" height="16.26" fill="#050403" opacity="0.6"/><rect x="765.27" y="1005.26" width="1.8" height="16.26" fill="#050403" opacity="0.6"/><rect x="773.61" y="1005.26" width="1.8" height="16.26" fill="#050403" opacity="0.6"/><rect x="781.95" y="1005.26" width="1.8" height="16.26" fill="#050403" opacity="0.6"/><rect x="790.29" y="1005.26" width="1.8" height="16.26" fill="#050403" opacity="0.6"/><rect x="798.63" y="1005.26" width="1.8" height="16.26" fill="#050403" opacity="0.6"/><rect x="806.97" y="1005.26" width="1.8" height="16.26" fill="#050403" opacity="0.6"/><rect x="749.76" y="1048.61" width="64.38" height="16.26" fill="#16110a" opacity="0.9"/><rect x="756.93" y="1048.61" width="1.8" height="16.26" fill="#050403" opacity="0.6"/><rect x="765.27" y="1048.61" width="1.8" height="16.26" fill="#050403" opacity="0.6"/><rect x="773.61" y="1048.61" width="1.8" height="16.26" fill="#050403" opacity="0.6"/><rect x="781.95" y="1048.61" width="1.8" height="16.26" fill="#050403" opacity="0.6"/><rect x="790.29" y="1048.61" width="1.8" height="16.26" fill="#050403" opacity="0.6"/><rect x="798.63" y="1048.61" width="1.8" height="16.26" fill="#050403" opacity="0.6"/><rect x="806.97" y="1048.61" width="1.8" height="16.26" fill="#050403" opacity="0.6"/><rect x="749.76" y="1091.97" width="64.38" height="16.26" fill="#16110a" opacity="0.9"/><rect x="756.93" y="1091.97" width="1.8" height="16.26" fill="#050403" opacity="0.6"/><rect x="765.27" y="1091.97" width="1.8" height="16.26" fill="#050403" opacity="0.6"/><rect x="773.61" y="1091.97" width="1.8" height="16.26" fill="#050403" opacity="0.6"/><rect x="781.95" y="1091.97" width="1.8" height="16.26" fill="#050403" opacity="0.6"/><rect x="790.29" y="1091.97" width="1.8" height="16.26" fill="#050403" opacity="0.6"/><rect x="798.63" y="1091.97" width="1.8" height="16.26" fill="#050403" opacity="0.6"/><rect x="806.97" y="1091.97" width="1.8" height="16.26" fill="#050403" opacity="0.6"/><ellipse cx="781.95" cy="966.25" rx="24.52" ry="10.84" fill="#382a16"/><ellipse cx="781.95" cy="966.25" rx="17.51" ry="6.94" fill="#d9a34a" opacity="0.45"/><rect x="808.89" y="974.92" width="2.25" height="173.41" fill="#f0cf90" opacity="0.3"/></g><rect x="744" y="1280.85" width="195" height="55.5" rx="16.65" fill="#050403"/><rect x="798.6" y="1278.6" width="19.5" height="60" fill="#16110a" opacity="0.9"/><rect x="849.3" y="1278.6" width="19.5" height="60" fill="#16110a" opacity="0.9"/><ellipse cx="939" cy="1308.6" rx="8.78" ry="23.31" fill="#d9a34a" opacity="0.4"/><path d="M 760.65 1280.85 L 922.35 1280.85" fill="none" stroke="#f0cf90" stroke-width="2.25" opacity="0.4"/>
<ellipse cx="619.6" cy="590.17" rx="660" ry="9" fill="url(#flareG)" opacity="0.5"/><circle cx="619.6" cy="590.17" r="30" fill="#f0cf90" opacity="0.35"/>
<rect x="0" y="0" width="1200" height="1500" fill="#d9a34a" opacity="0.05" style="mix-blend-mode:overlay"/>
<rect x="0" y="0" width="1200" height="1500" fill="url(#dust)"/><rect x="0" y="0" width="1200" height="1500" fill="url(#scan)"/>
<rect x="0" y="0" width="1200" height="1500" fill="url(#vig)"/>

</svg>