<svg xmlns="http://www.w3.org/2000/svg" viewBox="0 0 1600 900" width="1600" height="900" preserveAspectRatio="xMidYMid slice" role="img" aria-label="Cinematic placeholder frame">
<defs><linearGradient id="sky" x1="0" y1="0" x2="0" y2="1"><stop offset="0%" stop-color="#03030a"/><stop offset="42%" stop-color="#0b0a1f"/><stop offset="78%" stop-color="#241a45"/><stop offset="100%" stop-color="#03030a"/></linearGradient><radialGradient id="sun" cx="79.79%" cy="29.56%" r="62%"><stop offset="0%" stop-color="#5ee0f0" stop-opacity="0.72"/><stop offset="34%" stop-color="#ff6fbe" stop-opacity="0.28"/><stop offset="100%" stop-color="#ff6fbe" stop-opacity="0"/></radialGradient><linearGradient id="haze" x1="0" y1="0" x2="0" y2="1"><stop offset="0%" stop-color="#ff6fbe" stop-opacity="0.16"/><stop offset="100%" stop-color="#5ee0f0" stop-opacity="0"/></linearGradient><linearGradient id="water" x1="0" y1="0" x2="0" y2="1"><stop offset="0%" stop-color="#241a45"/><stop offset="100%" stop-color="#03030a"/></linearGradient><linearGradient id="shaft" x1="0" y1="0" x2="0" y2="1"><stop offset="0%" stop-color="#5ee0f0" stop-opacity="0.85"/><stop offset="100%" stop-color="#ff6fbe" stop-opacity="0.35"/></linearGradient><linearGradient id="soft" x1="0" y1="0" x2="1" y2="1"><stop offset="0%" stop-color="#0b0a1f"/><stop offset="60%" stop-color="#03030a"/><stop offset="100%" stop-color="#000000"/></linearGradient><radialGradient id="rim" cx="50%" cy="50%" r="50%"><stop offset="60%" stop-color="#ff6fbe" stop-opacity="0.34"/><stop offset="100%" stop-color="#ff6fbe" stop-opacity="0"/></radialGradient><radialGradient id="vig" cx="50%" cy="46%" r="72%"><stop offset="45%" stop-color="#000000" stop-opacity="0"/><stop offset="100%" stop-color="#000000" stop-opacity="0.9"/></radialGradient><linearGradient id="flareG" x1="0" y1="0" x2="1" y2="0"><stop offset="0%" stop-color="#5ee0f0" stop-opacity="0"/><stop offset="50%" stop-color="#5ee0f0" stop-opacity="0.5"/><stop offset="100%" stop-color="#5ee0f0" stop-opacity="0"/></linearGradient><pattern id="scan" width="4" height="4" patternUnits="userSpaceOnUse"><rect x="0" y="0" width="4" height="1" fill="#ffffff" opacity="0.035"/></pattern><pattern id="dust" width="7" height="7" patternUnits="userSpaceOnUse"><rect x="0" y="0" width="1" height="1" fill="#ffffff" opacity="0.07"/><rect x="4" y="3" width="1" height="1" fill="#000000" opacity="0.09"/><rect x="2" y="5" width="1" height="1" fill="#ffffff" opacity="0.045"/></pattern></defs>
<rect x="0" y="0" width="1600" height="900" fill="url(#sky)"/>
<rect x="0" y="0" width="1600" height="900" fill="url(#sun)"/>
<rect x="0" y="378" width="1600" height="288" fill="url(#haze)" opacity="0.55"/><g fill="#241a45" opacity="0.55"><rect x="-80" y="351.07" width="135.68" height="512.93"/><rect x="-16.25" y="291.88" width="8.17" height="72"/><rect x="78.13" y="351.58" width="112.62" height="512.42"/><rect x="130.76" y="294.41" width="7.37" height="72"/><rect x="209.52" y="342.77" width="95.22" height="521.23"/><rect x="324.66" y="495.51" width="82.38" height="368.49"/><rect x="363.07" y="463.74" width="5.56" height="72"/><rect x="438.19" y="489.47" width="67.83" height="374.53"/><rect x="516.86" y="325.2" width="104.14" height="538.8"/><rect x="631.9" y="327.46" width="48.52" height="536.54"/><rect x="653.07" y="307.97" width="6.17" height="72"/><rect x="709.31" y="365.23" width="123.45" height="498.77"/><rect x="843" y="406.02" width="127.89" height="457.98"/><rect x="1001.88" y="343.69" width="38.45" height="520.31"/><rect x="1018.86" y="308.09" width="4.5" height="72"/><rect x="1068.29" y="344.57" width="87.57" height="519.43"/><rect x="1164.68" y="501.13" width="78.9" height="362.87"/><rect x="1200.14" y="441.81" width="8" height="72"/><rect x="1250.03" y="319.8" width="92.8" height="544.2"/><rect x="1366.61" y="410.18" width="79.04" height="453.82"/><rect x="1461.06" y="427.39" width="75.89" height="436.61"/><rect x="1496" y="381.71" width="6.01" height="72"/><rect x="1549.46" y="427.16" width="93.27" height="436.84"/><rect x="1672.44" y="517.5" width="66.13" height="346.5"/></g><g fill="#5ee0f0"><rect x="1176.34" y="424.5" width="5.6" height="7.2" opacity="0.36"/><rect x="1453.42" y="393.59" width="5.6" height="7.2" opacity="0.63"/><rect x="991.17" y="368.44" width="5.6" height="7.2" opacity="0.54"/><rect x="755.16" y="520.31" width="5.6" height="7.2" opacity="0.55"/><rect x="87.81" y="372.72" width="5.6" height="7.2" opacity="0.3"/><rect x="646.73" y="390.88" width="5.6" height="7.2" opacity="0.2"/><rect x="1416.43" y="461.46" width="5.6" height="7.2" opacity="0.37"/><rect x="1279.18" y="379.14" width="5.6" height="7.2" opacity="0.39"/><rect x="686.57" y="573.17" width="5.6" height="7.2" opacity="0.49"/><rect x="176.75" y="519.7" width="5.6" height="7.2" opacity="0.11"/><rect x="105.61" y="517.63" width="5.6" height="7.2" opacity="0.32"/><rect x="1524.15" y="481.93" width="5.6" height="7.2" opacity="0.51"/><rect x="1082.2" y="451.08" width="5.6" height="7.2" opacity="0.67"/><rect x="301.71" y="520.01" width="5.6" height="7.2" opacity="0.44"/><rect x="251.96" y="432.88" width="5.6" height="7.2" opacity="0.49"/><rect x="1105.52" y="364.7" width="5.6" height="7.2" opacity="0.16"/><rect x="193.14" y="552.42" width="5.6" height="7.2" opacity="0.55"/><rect x="663.12" y="342.38" width="5.6" height="7.2" opacity="0.63"/><rect x="1540.57" y="516.36" width="5.6" height="7.2" opacity="0.69"/><rect x="514.53" y="512.54" width="5.6" height="7.2" opacity="0.65"/><rect x="549.96" y="359.24" width="5.6" height="7.2" opacity="0.38"/><rect x="386.04" y="366.5" width="5.6" height="7.2" opacity="0.68"/><rect x="1160.35" y="541.52" width="5.6" height="7.2" opacity="0.32"/><rect x="1389.39" y="359.85" width="5.6" height="7.2" opacity="0.37"/><rect x="895.39" y="454.3" width="5.6" height="7.2" opacity="0.68"/><rect x="464.15" y="467.44" width="5.6" height="7.2" opacity="0.15"/><rect x="1374.49" y="532.55" width="5.6" height="7.2" opacity="0.52"/><rect x="1531.07" y="454.57" width="5.6" height="7.2" opacity="0.43"/><rect x="517.79" y="456" width="5.6" height="7.2" opacity="0.71"/><rect x="637.47" y="459.79" width="5.6" height="7.2" opacity="0.68"/><rect x="1015.22" y="448.65" width="5.6" height="7.2" opacity="0.39"/><rect x="1287.23" y="341.01" width="5.6" height="7.2" opacity="0.11"/><rect x="427.64" y="529.53" width="5.6" height="7.2" opacity="0.51"/><rect x="502.91" y="375" width="5.6" height="7.2" opacity="0.72"/><rect x="314.86" y="329.77" width="5.6" height="7.2" opacity="0.13"/><rect x="580.23" y="378.51" width="5.6" height="7.2" opacity="0.2"/><rect x="991.25" y="462.78" width="5.6" height="7.2" opacity="0.17"/><rect x="1157.49" y="566.19" width="5.6" height="7.2" opacity="0.59"/><rect x="215.9" y="427.64" width="5.6" height="7.2" opacity="0.36"/><rect x="335.61" y="335.25" width="5.6" height="7.2" opacity="0.44"/><rect x="397.4" y="424.52" width="5.6" height="7.2" opacity="0.56"/><rect x="1114.64" y="330" width="5.6" height="7.2" opacity="0.58"/><rect x="164.78" y="554.87" width="5.6" height="7.2" opacity="0.45"/><rect x="1331.69" y="467.91" width="5.6" height="7.2" opacity="0.67"/><rect x="1342.36" y="507.65" width="5.6" height="7.2" opacity="0.58"/><rect x="743.23" y="546.7" width="5.6" height="7.2" opacity="0.15"/><rect x="918.82" y="378.92" width="5.6" height="7.2" opacity="0.28"/><rect x="309.99" y="411.5" width="5.6" height="7.2" opacity="0.19"/><rect x="624.06" y="450.03" width="5.6" height="7.2" opacity="0.31"/><rect x="660.02" y="344.02" width="5.6" height="7.2" opacity="0.15"/><rect x="963.58" y="385.78" width="5.6" height="7.2" opacity="0.56"/><rect x="1343.23" y="375.79" width="5.6" height="7.2" opacity="0.61"/><rect x="1462.8" y="562.26" width="5.6" height="7.2" opacity="0.12"/><rect x="154.37" y="561.45" width="5.6" height="7.2" opacity="0.68"/><rect x="602.18" y="349.66" width="5.6" height="7.2" opacity="0.35"/><rect x="803.22" y="554.8" width="5.6" height="7.2" opacity="0.11"/><rect x="20" y="339.67" width="5.6" height="7.2" opacity="0.69"/><rect x="114.07" y="442.1" width="5.6" height="7.2" opacity="0.3"/><rect x="949.25" y="434.49" width="5.6" height="7.2" opacity="0.69"/><rect x="1149.55" y="353.33" width="5.6" height="7.2" opacity="0.5"/><rect x="1176.62" y="517.2" width="5.6" height="7.2" opacity="0.21"/><rect x="330.67" y="520.71" width="5.6" height="7.2" opacity="0.32"/><rect x="616.08" y="486.05" width="5.6" height="7.2" opacity="0.19"/><rect x="1226.03" y="559.56" width="5.6" height="7.2" opacity="0.61"/><rect x="675.83" y="541.88" width="5.6" height="7.2" opacity="0.67"/><rect x="683.66" y="390.75" width="5.6" height="7.2" opacity="0.64"/><rect x="125.71" y="518.17" width="5.6" height="7.2" opacity="0.69"/><rect x="0.55" y="397" width="5.6" height="7.2" opacity="0.13"/><rect x="189.67" y="505.63" width="5.6" height="7.2" opacity="0.57"/><rect x="425.92" y="431.58" width="5.6" height="7.2" opacity="0.22"/><rect x="1182.65" y="359.39" width="5.6" height="7.2" opacity="0.17"/><rect x="771.34" y="499.61" width="5.6" height="7.2" opacity="0.38"/><rect x="726.45" y="377.73" width="5.6" height="7.2" opacity="0.7"/><rect x="1364.44" y="334.16" width="5.6" height="7.2" opacity="0.35"/><rect x="1355.97" y="347.8" width="5.6" height="7.2" opacity="0.75"/><rect x="85.04" y="510.1" width="5.6" height="7.2" opacity="0.6"/><rect x="1043.95" y="450.12" width="5.6" height="7.2" opacity="0.56"/><rect x="731.93" y="349.75" width="5.6" height="7.2" opacity="0.12"/><rect x="621.52" y="569.82" width="5.6" height="7.2" opacity="0.27"/><rect x="945.09" y="517.6" width="5.6" height="7.2" opacity="0.41"/><rect x="1510.69" y="416.39" width="5.6" height="7.2" opacity="0.12"/><rect x="265.98" y="343.83" width="5.6" height="7.2" opacity="0.61"/><rect x="5.73" y="377.21" width="5.6" height="7.2" opacity="0.57"/><rect x="380.88" y="543.71" width="5.6" height="7.2" opacity="0.18"/><rect x="1023.45" y="468.43" width="5.6" height="7.2" opacity="0.31"/><rect x="1113.13" y="452.53" width="5.6" height="7.2" opacity="0.72"/><rect x="663.01" y="575.7" width="5.6" height="7.2" opacity="0.15"/><rect x="695.12" y="527.5" width="5.6" height="7.2" opacity="0.71"/><rect x="233.58" y="470.77" width="5.6" height="7.2" opacity="0.69"/><rect x="704.76" y="415.29" width="5.6" height="7.2" opacity="0.27"/><rect x="725.65" y="365.79" width="5.6" height="7.2" opacity="0.53"/><rect x="1442.07" y="493.86" width="5.6" height="7.2" opacity="0.38"/><rect x="776.71" y="537.52" width="5.6" height="7.2" opacity="0.56"/><rect x="14.82" y="499.1" width="5.6" height="7.2" opacity="0.68"/><rect x="831.37" y="441.13" width="5.6" height="7.2" opacity="0.33"/><rect x="1418.21" y="575.84" width="5.6" height="7.2" opacity="0.11"/><rect x="1077.23" y="513.06" width="5.6" height="7.2" opacity="0.3"/><rect x="1242.98" y="339.86" width="5.6" height="7.2" opacity="0.53"/><rect x="81.46" y="516.81" width="5.6" height="7.2" opacity="0.25"/><rect x="572.43" y="446.74" width="5.6" height="7.2" opacity="0.1"/><rect x="1085.51" y="442.54" width="5.6" height="7.2" opacity="0.15"/><rect x="1116.05" y="528.23" width="5.6" height="7.2" opacity="0.48"/><rect x="1099.25" y="335.61" width="5.6" height="7.2" opacity="0.36"/><rect x="135.63" y="384.78" width="5.6" height="7.2" opacity="0.44"/><rect x="1396.67" y="549.01" width="5.6" height="7.2" opacity="0.28"/><rect x="94.97" y="354" width="5.6" height="7.2" opacity="0.45"/><rect x="602.24" y="467.16" width="5.6" height="7.2" opacity="0.46"/><rect x="850.87" y="470.33" width="5.6" height="7.2" opacity="0.42"/><rect x="1568.28" y="345.23" width="5.6" height="7.2" opacity="0.66"/><rect x="697.73" y="543.9" width="5.6" height="7.2" opacity="0.4"/><rect x="514.13" y="327.04" width="5.6" height="7.2" opacity="0.74"/><rect x="1348.68" y="421.49" width="5.6" height="7.2" opacity="0.69"/><rect x="1425.32" y="467.41" width="5.6" height="7.2" opacity="0.61"/><rect x="1328.96" y="424.53" width="5.6" height="7.2" opacity="0.59"/><rect x="599.47" y="570.01" width="5.6" height="7.2" opacity="0.4"/><rect x="1004.69" y="535.62" width="5.6" height="7.2" opacity="0.54"/><rect x="1388.98" y="551.29" width="5.6" height="7.2" opacity="0.1"/><rect x="1183.34" y="436.82" width="5.6" height="7.2" opacity="0.22"/><rect x="1423.02" y="470.33" width="5.6" height="7.2" opacity="0.18"/><rect x="680.33" y="425.29" width="5.6" height="7.2" opacity="0.47"/><rect x="225.47" y="534.23" width="5.6" height="7.2" opacity="0.23"/><rect x="1312.28" y="558.37" width="5.6" height="7.2" opacity="0.17"/><rect x="1510.64" y="439.14" width="5.6" height="7.2" opacity="0.36"/><rect x="221.7" y="353.17" width="5.6" height="7.2" opacity="0.67"/><rect x="231.81" y="365.93" width="5.6" height="7.2" opacity="0.59"/><rect x="13.1" y="472.76" width="5.6" height="7.2" opacity="0.28"/><rect x="1534.87" y="571.44" width="5.6" height="7.2" opacity="0.67"/><rect x="268.28" y="482.92" width="5.6" height="7.2" opacity="0.52"/><rect x="1238.75" y="430.32" width="5.6" height="7.2" opacity="0.52"/><rect x="769.75" y="542.11" width="5.6" height="7.2" opacity="0.51"/><rect x="1483.77" y="491.42" width="5.6" height="7.2" opacity="0.41"/><rect x="1195.02" y="523.29" width="5.6" height="7.2" opacity="0.64"/><rect x="1088.16" y="349.48" width="5.6" height="7.2" opacity="0.4"/><rect x="419.63" y="559.98" width="5.6" height="7.2" opacity="0.44"/><rect x="323.68" y="493.02" width="5.6" height="7.2" opacity="0.3"/><rect x="979.55" y="551.81" width="5.6" height="7.2" opacity="0.1"/><rect x="1265.76" y="444.63" width="5.6" height="7.2" opacity="0.45"/><rect x="185.06" y="480.64" width="5.6" height="7.2" opacity="0.36"/><rect x="15.5" y="471.58" width="5.6" height="7.2" opacity="0.22"/><rect x="976.09" y="441.05" width="5.6" height="7.2" opacity="0.45"/><rect x="22.92" y="390.2" width="5.6" height="7.2" opacity="0.53"/><rect x="1145.55" y="498.16" width="5.6" height="7.2" opacity="0.13"/><rect x="914.34" y="511.91" width="5.6" height="7.2" opacity="0.59"/><rect x="663.96" y="379.68" width="5.6" height="7.2" opacity="0.57"/><rect x="886.46" y="432.81" width="5.6" height="7.2" opacity="0.46"/><rect x="678.99" y="512.34" width="5.6" height="7.2" opacity="0.52"/><rect x="1336.01" y="436.41" width="5.6" height="7.2" opacity="0.68"/><rect x="1090.02" y="394.23" width="5.6" height="7.2" opacity="0.47"/><rect x="791.85" y="498.71" width="5.6" height="7.2" opacity="0.71"/><rect x="546.93" y="368.15" width="5.6" height="7.2" opacity="0.66"/></g><g fill="#0b0a1f" opacity="0.75"><rect x="-80" y="547.31" width="56.32" height="370.69"/><rect x="-55.7" y="514.13" width="7.72" height="72"/><rect x="-13.54" y="391.02" width="75.55" height="526.98"/><rect x="90.5" y="477.69" width="104.97" height="440.31"/><rect x="136.94" y="450.26" width="12.08" height="72"/><rect x="206.75" y="512.03" width="72.54" height="405.97"/><rect x="296.92" y="540.56" width="96.22" height="377.44"/><rect x="418.19" y="397.44" width="83.9" height="520.56"/><rect x="530.44" y="426.23" width="110.06" height="491.77"/><rect x="647.29" y="403.09" width="66.75" height="514.91"/><rect x="727.03" y="403.8" width="137.3" height="514.2"/><rect x="890.58" y="466.13" width="115.85" height="451.87"/><rect x="1033.01" y="556.62" width="124.66" height="361.38"/><rect x="1088.43" y="496.51" width="13.81" height="72"/><rect x="1175.83" y="438.28" width="115.14" height="479.72"/><rect x="1228.23" y="410.21" width="10.32" height="72"/><rect x="1299.84" y="495.82" width="101.52" height="422.18"/><rect x="1419.62" y="408.95" width="46.47" height="509.05"/><rect x="1473.24" y="395.13" width="51.84" height="522.87"/><rect x="1532.25" y="392.67" width="73.32" height="525.33"/><rect x="1634.39" y="458.85" width="58.47" height="459.15"/><rect x="1660.89" y="401.18" width="5.46" height="72"/></g><g fill="#03030a" opacity="0.95"><rect x="-80" y="526.43" width="58.53" height="445.57"/><rect x="1.44" y="620.22" width="55.22" height="351.78"/><rect x="26.66" y="567.82" width="4.79" height="72"/><rect x="72.18" y="568.55" width="135.36" height="403.45"/><rect x="133.76" y="527.17" width="12.2" height="72"/><rect x="224.35" y="518.79" width="68.52" height="453.21"/><rect x="256.04" y="463.23" width="5.15" height="72"/><rect x="323.01" y="593.47" width="56.56" height="378.53"/><rect x="386.3" y="595.19" width="110.32" height="376.81"/><rect x="516.15" y="555.26" width="91.74" height="416.74"/><rect x="634.67" y="602.11" width="92.33" height="369.89"/><rect x="675.3" y="547.87" width="11.08" height="72"/><rect x="756.55" y="559.41" width="72.9" height="412.59"/><rect x="842.47" y="513.25" width="120.73" height="458.75"/><rect x="992.28" y="646.38" width="51.82" height="325.62"/><rect x="1015.6" y="621.6" width="5.17" height="72"/><rect x="1067.24" y="535.58" width="110.8" height="436.42"/><rect x="1117.9" y="493.17" width="9.49" height="72"/><rect x="1207.74" y="517.98" width="33.44" height="454.02"/><rect x="1265.16" y="496.45" width="122.12" height="475.55"/><rect x="1320.82" y="440.67" width="10.79" height="72"/><rect x="1411.07" y="636.45" width="60.65" height="335.55"/><rect x="1490.87" y="508.94" width="51.64" height="463.06"/><rect x="1557.21" y="567.44" width="134.17" height="404.56"/></g><rect x="1430.58" y="562.3" width="152.64" height="35.9" rx="7.18" fill="#5ee0f0" opacity="0.55"/><rect x="1407.69" y="540.76" width="198.43" height="78.97" rx="35.9" fill="#5ee0f0" opacity="0.14"/><rect x="1331.57" y="412.74" width="177.15" height="25.97" rx="5.19" fill="#5ee0f0" opacity="0.72"/><rect x="1305" y="397.16" width="230.3" height="57.13" rx="25.97" fill="#5ee0f0" opacity="0.14"/><rect x="865.69" y="524.89" width="185.04" height="28.93" rx="5.79" fill="#ff6fbe" opacity="0.44"/><rect x="837.94" y="507.53" width="240.56" height="63.65" rx="28.93" fill="#ff6fbe" opacity="0.14"/><rect x="234.48" y="567.75" width="158.35" height="37.12" rx="7.42" fill="#5ee0f0" opacity="0.67"/><rect x="210.73" y="545.48" width="205.85" height="81.65" rx="37.12" fill="#5ee0f0" opacity="0.14"/><rect x="819.55" y="517.62" width="94.02" height="27.47" rx="5.49" fill="#ff6fbe" opacity="0.89"/><rect x="805.45" y="501.14" width="122.22" height="60.43" rx="27.47" fill="#ff6fbe" opacity="0.14"/><rect x="885.79" y="288.66" width="202.84" height="9" rx="1.8" fill="#ff6fbe" opacity="0.79"/><rect x="855.36" y="283.26" width="263.69" height="19.8" rx="9" fill="#ff6fbe" opacity="0.14"/><rect x="282.5" y="556.73" width="150.02" height="43.26" rx="8.65" fill="#ff6fbe" opacity="0.38"/><rect x="259.99" y="530.77" width="195.03" height="95.18" rx="43.26" fill="#ff6fbe" opacity="0.14"/><rect x="1096.15" y="466.01" width="183.44" height="21.39" rx="4.28" fill="#5ee0f0" opacity="0.63"/><rect x="1068.63" y="453.18" width="238.47" height="47.05" rx="21.39" fill="#5ee0f0" opacity="0.14"/><rect x="366.38" y="520.08" width="51.87" height="17.02" rx="3.4" fill="#ff6fbe" opacity="0.74"/><rect x="358.6" y="509.87" width="67.43" height="37.45" rx="17.02" fill="#ff6fbe" opacity="0.14"/><rect x="0" y="702" width="1600" height="198" fill="#03030a" opacity="0.6"/>
<ellipse cx="1276.65" cy="266.05" rx="880" ry="5.4" fill="url(#flareG)" opacity="0.5"/><circle cx="1276.65" cy="266.05" r="18" fill="#5ee0f0" opacity="0.35"/>
<rect x="0" y="0" width="1600" height="900" fill="#ff6fbe" opacity="0.05" style="mix-blend-mode:overlay"/>
<rect x="0" y="0" width="1600" height="900" fill="url(#dust)"/><rect x="0" y="0" width="1600" height="900" fill="url(#scan)"/>
<rect x="0" y="0" width="1600" height="900" fill="url(#vig)"/>

</svg>