<svg xmlns="http://www.w3.org/2000/svg" viewBox="0 0 1600 900" width="1600" height="900" preserveAspectRatio="xMidYMid slice" role="img" aria-label="Cinematic placeholder frame">
<defs><linearGradient id="sky" x1="0" y1="0" x2="0" y2="1"><stop offset="0%" stop-color="#03030a"/><stop offset="42%" stop-color="#0b0a1f"/><stop offset="78%" stop-color="#241a45"/><stop offset="100%" stop-color="#03030a"/></linearGradient><radialGradient id="sun" cx="78.54%" cy="34.8%" r="62%"><stop offset="0%" stop-color="#5ee0f0" stop-opacity="0.72"/><stop offset="34%" stop-color="#ff6fbe" stop-opacity="0.28"/><stop offset="100%" stop-color="#ff6fbe" stop-opacity="0"/></radialGradient><linearGradient id="haze" x1="0" y1="0" x2="0" y2="1"><stop offset="0%" stop-color="#ff6fbe" stop-opacity="0.16"/><stop offset="100%" stop-color="#5ee0f0" stop-opacity="0"/></linearGradient><linearGradient id="water" x1="0" y1="0" x2="0" y2="1"><stop offset="0%" stop-color="#241a45"/><stop offset="100%" stop-color="#03030a"/></linearGradient><linearGradient id="shaft" x1="0" y1="0" x2="0" y2="1"><stop offset="0%" stop-color="#5ee0f0" stop-opacity="0.85"/><stop offset="100%" stop-color="#ff6fbe" stop-opacity="0.35"/></linearGradient><linearGradient id="soft" x1="0" y1="0" x2="1" y2="1"><stop offset="0%" stop-color="#0b0a1f"/><stop offset="60%" stop-color="#03030a"/><stop offset="100%" stop-color="#000000"/></linearGradient><radialGradient id="rim" cx="50%" cy="50%" r="50%"><stop offset="60%" stop-color="#ff6fbe" stop-opacity="0.34"/><stop offset="100%" stop-color="#ff6fbe" stop-opacity="0"/></radialGradient><radialGradient id="vig" cx="50%" cy="46%" r="72%"><stop offset="45%" stop-color="#000000" stop-opacity="0"/><stop offset="100%" stop-color="#000000" stop-opacity="0.9"/></radialGradient><linearGradient id="flareG" x1="0" y1="0" x2="1" y2="0"><stop offset="0%" stop-color="#5ee0f0" stop-opacity="0"/><stop offset="50%" stop-color="#5ee0f0" stop-opacity="0.5"/><stop offset="100%" stop-color="#5ee0f0" stop-opacity="0"/></linearGradient><pattern id="scan" width="4" height="4" patternUnits="userSpaceOnUse"><rect x="0" y="0" width="4" height="1" fill="#ffffff" opacity="0.035"/></pattern><pattern id="dust" width="7" height="7" patternUnits="userSpaceOnUse"><rect x="0" y="0" width="1" height="1" fill="#ffffff" opacity="0.07"/><rect x="4" y="3" width="1" height="1" fill="#000000" opacity="0.09"/><rect x="2" y="5" width="1" height="1" fill="#ffffff" opacity="0.045"/></pattern></defs>
<rect x="0" y="0" width="1600" height="900" fill="url(#sky)"/>
<rect x="0" y="0" width="1600" height="900" fill="url(#sun)"/>
<rect x="0" y="378" width="1600" height="288" fill="url(#haze)" opacity="0.55"/><g fill="#241a45" opacity="0.55"><rect x="-80" y="346.88" width="70.03" height="517.12"/><rect x="14.22" y="402.43" width="70.39" height="461.57"/><rect x="46.12" y="370.95" width="6.58" height="72"/><rect x="113.51" y="463.03" width="143.77" height="400.97"/><rect x="288.53" y="364.15" width="111.54" height="499.85"/><rect x="336.76" y="343.03" width="15.08" height="72"/><rect x="409.05" y="358.9" width="65.6" height="505.1"/><rect x="502.9" y="342.83" width="57.28" height="521.17"/><rect x="583.62" y="412.74" width="109.68" height="451.26"/><rect x="631.37" y="362.06" width="14.19" height="72"/><rect x="717.79" y="521.21" width="138.5" height="342.79"/><rect x="873.61" y="330.16" width="76.84" height="533.84"/><rect x="975.09" y="419.87" width="132.1" height="444.13"/><rect x="1121.78" y="370.94" width="84.19" height="493.06"/><rect x="1160.15" y="334" width="7.45" height="72"/><rect x="1233.46" y="437.56" width="60.46" height="426.44"/><rect x="1325.62" y="373.33" width="77.8" height="490.67"/><rect x="1359.16" y="353.81" width="10.74" height="72"/><rect x="1414.9" y="364.86" width="136.77" height="499.14"/><rect x="1477.89" y="321.14" width="10.78" height="72"/><rect x="1582.42" y="467.17" width="136.63" height="396.83"/><rect x="1645.94" y="409.51" width="9.58" height="72"/></g><g fill="#5ee0f0"><rect x="1259.75" y="344.98" width="5.6" height="7.2" opacity="0.25"/><rect x="260.65" y="414.88" width="5.6" height="7.2" opacity="0.31"/><rect x="157.75" y="333.68" width="5.6" height="7.2" opacity="0.45"/><rect x="948.3" y="426.61" width="5.6" height="7.2" opacity="0.26"/><rect x="368.05" y="337.47" width="5.6" height="7.2" opacity="0.49"/><rect x="1239.28" y="341.19" width="5.6" height="7.2" opacity="0.52"/><rect x="1144.37" y="509.21" width="5.6" height="7.2" opacity="0.59"/><rect x="1332.71" y="467.1" width="5.6" height="7.2" opacity="0.43"/><rect x="22.04" y="458.38" width="5.6" height="7.2" opacity="0.16"/><rect x="230.06" y="386.57" width="5.6" height="7.2" opacity="0.2"/><rect x="5" y="416.35" width="5.6" height="7.2" opacity="0.6"/><rect x="1150.53" y="324.74" width="5.6" height="7.2" opacity="0.11"/><rect x="781.69" y="326.19" width="5.6" height="7.2" opacity="0.56"/><rect x="291.5" y="478.65" width="5.6" height="7.2" opacity="0.18"/><rect x="1372.65" y="466.14" width="5.6" height="7.2" opacity="0.27"/><rect x="922.06" y="560.79" width="5.6" height="7.2" opacity="0.64"/><rect x="1077.27" y="446.99" width="5.6" height="7.2" opacity="0.67"/><rect x="420.23" y="403.18" width="5.6" height="7.2" opacity="0.52"/><rect x="201.29" y="554.56" width="5.6" height="7.2" opacity="0.31"/><rect x="935.14" y="575.62" width="5.6" height="7.2" opacity="0.73"/><rect x="408.47" y="559.24" width="5.6" height="7.2" opacity="0.13"/><rect x="1594.28" y="519.3" width="5.6" height="7.2" opacity="0.44"/><rect x="791.09" y="367.5" width="5.6" height="7.2" opacity="0.14"/><rect x="1267.04" y="399.65" width="5.6" height="7.2" opacity="0.32"/><rect x="919.36" y="368.47" width="5.6" height="7.2" opacity="0.31"/><rect x="1137.39" y="532.93" width="5.6" height="7.2" opacity="0.67"/><rect x="1227.53" y="431.91" width="5.6" height="7.2" opacity="0.36"/><rect x="37.77" y="450.91" width="5.6" height="7.2" opacity="0.66"/><rect x="135.06" y="333.92" width="5.6" height="7.2" opacity="0.14"/><rect x="1056.75" y="554.09" width="5.6" height="7.2" opacity="0.68"/><rect x="952.83" y="328.72" width="5.6" height="7.2" opacity="0.5"/><rect x="497.07" y="340.35" width="5.6" height="7.2" opacity="0.62"/><rect x="872.04" y="509.31" width="5.6" height="7.2" opacity="0.64"/><rect x="575.29" y="522.96" width="5.6" height="7.2" opacity="0.55"/><rect x="932.57" y="499.19" width="5.6" height="7.2" opacity="0.23"/><rect x="194.11" y="360.49" width="5.6" height="7.2" opacity="0.55"/><rect x="272.1" y="425.47" width="5.6" height="7.2" opacity="0.26"/><rect x="573.87" y="364.58" width="5.6" height="7.2" opacity="0.26"/><rect x="687.81" y="329.27" width="5.6" height="7.2" opacity="0.56"/><rect x="6.84" y="571.69" width="5.6" height="7.2" opacity="0.14"/><rect x="744.76" y="459.59" width="5.6" height="7.2" opacity="0.67"/><rect x="1002.96" y="405.34" width="5.6" height="7.2" opacity="0.25"/><rect x="1541.94" y="532.91" width="5.6" height="7.2" opacity="0.52"/><rect x="725.76" y="386.1" width="5.6" height="7.2" opacity="0.21"/><rect x="419.59" y="400.78" width="5.6" height="7.2" opacity="0.69"/><rect x="1562.37" y="561.11" width="5.6" height="7.2" opacity="0.67"/><rect x="654.65" y="468.74" width="5.6" height="7.2" opacity="0.24"/><rect x="1450.74" y="330.79" width="5.6" height="7.2" opacity="0.3"/><rect x="1463.16" y="536.56" width="5.6" height="7.2" opacity="0.35"/><rect x="277.13" y="410.99" width="5.6" height="7.2" opacity="0.23"/><rect x="539.01" y="519.06" width="5.6" height="7.2" opacity="0.64"/><rect x="1160.51" y="355.81" width="5.6" height="7.2" opacity="0.32"/><rect x="780.83" y="496.83" width="5.6" height="7.2" opacity="0.16"/><rect x="983.34" y="531.17" width="5.6" height="7.2" opacity="0.69"/><rect x="901.77" y="427.56" width="5.6" height="7.2" opacity="0.75"/><rect x="579.21" y="557.99" width="5.6" height="7.2" opacity="0.6"/><rect x="1274.4" y="346.33" width="5.6" height="7.2" opacity="0.37"/><rect x="1166.04" y="339.25" width="5.6" height="7.2" opacity="0.49"/><rect x="1226.32" y="497.83" width="5.6" height="7.2" opacity="0.59"/><rect x="123.34" y="542.08" width="5.6" height="7.2" opacity="0.34"/><rect x="980.89" y="386.63" width="5.6" height="7.2" opacity="0.53"/><rect x="1473.24" y="412.61" width="5.6" height="7.2" opacity="0.6"/><rect x="596.94" y="377.56" width="5.6" height="7.2" opacity="0.62"/><rect x="336.84" y="411.76" width="5.6" height="7.2" opacity="0.13"/><rect x="1315.15" y="337.75" width="5.6" height="7.2" opacity="0.65"/><rect x="999.94" y="431.1" width="5.6" height="7.2" opacity="0.44"/><rect x="61.5" y="474.97" width="5.6" height="7.2" opacity="0.23"/><rect x="85.28" y="549.48" width="5.6" height="7.2" opacity="0.64"/><rect x="915.46" y="482.11" width="5.6" height="7.2" opacity="0.18"/><rect x="119.87" y="453.85" width="5.6" height="7.2" opacity="0.18"/><rect x="1326.88" y="339.58" width="5.6" height="7.2" opacity="0.58"/><rect x="1487.51" y="535.12" width="5.6" height="7.2" opacity="0.2"/><rect x="1105.13" y="367.94" width="5.6" height="7.2" opacity="0.66"/><rect x="901.02" y="551.45" width="5.6" height="7.2" opacity="0.21"/><rect x="351.49" y="391.77" width="5.6" height="7.2" opacity="0.17"/><rect x="268.2" y="549.37" width="5.6" height="7.2" opacity="0.6"/><rect x="428.23" y="525.1" width="5.6" height="7.2" opacity="0.41"/><rect x="1210.36" y="506.47" width="5.6" height="7.2" opacity="0.23"/><rect x="573.54" y="437.76" width="5.6" height="7.2" opacity="0.28"/><rect x="1356.16" y="347.46" width="5.6" height="7.2" opacity="0.32"/><rect x="1292.77" y="385.12" width="5.6" height="7.2" opacity="0.47"/><rect x="198.85" y="474.89" width="5.6" height="7.2" opacity="0.43"/><rect x="659.79" y="341.56" width="5.6" height="7.2" opacity="0.41"/><rect x="309.1" y="512.52" width="5.6" height="7.2" opacity="0.7"/><rect x="534.62" y="368.83" width="5.6" height="7.2" opacity="0.74"/><rect x="75.81" y="379.06" width="5.6" height="7.2" opacity="0.51"/><rect x="1567.8" y="572.69" width="5.6" height="7.2" opacity="0.46"/><rect x="1358.07" y="325.46" width="5.6" height="7.2" opacity="0.24"/><rect x="54.8" y="574.17" width="5.6" height="7.2" opacity="0.49"/><rect x="67.97" y="550.53" width="5.6" height="7.2" opacity="0.29"/><rect x="197.6" y="414.99" width="5.6" height="7.2" opacity="0.54"/><rect x="1255.72" y="426.86" width="5.6" height="7.2" opacity="0.15"/><rect x="858.25" y="337.27" width="5.6" height="7.2" opacity="0.7"/><rect x="1447.04" y="514.77" width="5.6" height="7.2" opacity="0.71"/><rect x="1016.9" y="413.45" width="5.6" height="7.2" opacity="0.33"/><rect x="10.61" y="509.6" width="5.6" height="7.2" opacity="0.71"/><rect x="166.43" y="373.7" width="5.6" height="7.2" opacity="0.51"/><rect x="822.42" y="385.72" width="5.6" height="7.2" opacity="0.14"/><rect x="1274.12" y="340.2" width="5.6" height="7.2" opacity="0.33"/><rect x="1500.89" y="339.43" width="5.6" height="7.2" opacity="0.36"/><rect x="712.17" y="470.33" width="5.6" height="7.2" opacity="0.31"/><rect x="135.88" y="557.07" width="5.6" height="7.2" opacity="0.52"/><rect x="656.28" y="537.28" width="5.6" height="7.2" opacity="0.33"/><rect x="214.49" y="393.54" width="5.6" height="7.2" opacity="0.13"/><rect x="359.1" y="414.66" width="5.6" height="7.2" opacity="0.4"/><rect x="247.15" y="550.53" width="5.6" height="7.2" opacity="0.74"/><rect x="711.68" y="423.18" width="5.6" height="7.2" opacity="0.59"/><rect x="1477.7" y="425.3" width="5.6" height="7.2" opacity="0.61"/><rect x="1574.07" y="438.64" width="5.6" height="7.2" opacity="0.3"/><rect x="213.29" y="518.9" width="5.6" height="7.2" opacity="0.43"/><rect x="148.83" y="482.53" width="5.6" height="7.2" opacity="0.19"/><rect x="951.41" y="555.01" width="5.6" height="7.2" opacity="0.26"/><rect x="631.19" y="509.39" width="5.6" height="7.2" opacity="0.69"/><rect x="56.98" y="345.57" width="5.6" height="7.2" opacity="0.74"/><rect x="1008.98" y="374.08" width="5.6" height="7.2" opacity="0.73"/><rect x="1263.91" y="436.34" width="5.6" height="7.2" opacity="0.65"/><rect x="30.97" y="457.21" width="5.6" height="7.2" opacity="0.64"/><rect x="735.04" y="496.35" width="5.6" height="7.2" opacity="0.43"/><rect x="421.99" y="421.14" width="5.6" height="7.2" opacity="0.24"/><rect x="1055.85" y="562.84" width="5.6" height="7.2" opacity="0.67"/><rect x="420.7" y="478.23" width="5.6" height="7.2" opacity="0.66"/><rect x="764.77" y="505.33" width="5.6" height="7.2" opacity="0.32"/><rect x="559.45" y="461.25" width="5.6" height="7.2" opacity="0.26"/><rect x="1172.19" y="373.66" width="5.6" height="7.2" opacity="0.55"/><rect x="49.1" y="346.11" width="5.6" height="7.2" opacity="0.69"/><rect x="1008.28" y="573.04" width="5.6" height="7.2" opacity="0.41"/><rect x="160.63" y="539.24" width="5.6" height="7.2" opacity="0.42"/><rect x="1242.3" y="365.48" width="5.6" height="7.2" opacity="0.52"/><rect x="967.65" y="422.73" width="5.6" height="7.2" opacity="0.7"/><rect x="1054.4" y="346.24" width="5.6" height="7.2" opacity="0.26"/><rect x="70.46" y="372.76" width="5.6" height="7.2" opacity="0.65"/><rect x="1029.27" y="336.87" width="5.6" height="7.2" opacity="0.47"/><rect x="420.89" y="487.72" width="5.6" height="7.2" opacity="0.54"/><rect x="729.36" y="485.77" width="5.6" height="7.2" opacity="0.18"/><rect x="1136.27" y="396.93" width="5.6" height="7.2" opacity="0.24"/><rect x="1463.78" y="325.22" width="5.6" height="7.2" opacity="0.7"/><rect x="843.33" y="367.16" width="5.6" height="7.2" opacity="0.28"/><rect x="517.58" y="464.87" width="5.6" height="7.2" opacity="0.26"/><rect x="834.16" y="344.04" width="5.6" height="7.2" opacity="0.21"/><rect x="165.3" y="502.36" width="5.6" height="7.2" opacity="0.28"/><rect x="1273.27" y="432.85" width="5.6" height="7.2" opacity="0.18"/><rect x="1490.14" y="454.68" width="5.6" height="7.2" opacity="0.75"/><rect x="183.29" y="377.47" width="5.6" height="7.2" opacity="0.42"/><rect x="469.3" y="455.43" width="5.6" height="7.2" opacity="0.23"/><rect x="1569.43" y="333.61" width="5.6" height="7.2" opacity="0.24"/><rect x="266.47" y="485.82" width="5.6" height="7.2" opacity="0.29"/><rect x="495.18" y="483.66" width="5.6" height="7.2" opacity="0.2"/><rect x="423.46" y="362.93" width="5.6" height="7.2" opacity="0.5"/><rect x="1022.44" y="527.26" width="5.6" height="7.2" opacity="0.68"/><rect x="1185.03" y="348.37" width="5.6" height="7.2" opacity="0.12"/></g><g fill="#0b0a1f" opacity="0.75"><rect x="-80" y="451.09" width="92.75" height="466.91"/><rect x="-39.32" y="402.09" width="11.4" height="72"/><rect x="40.27" y="547.44" width="114.65" height="370.56"/><rect x="186.36" y="491.02" width="114.75" height="426.98"/><rect x="325.64" y="465.7" width="130.9" height="452.3"/><rect x="483.35" y="536.99" width="86.66" height="381.01"/><rect x="582.64" y="446.97" width="107.2" height="471.03"/><rect x="628.99" y="416.79" width="14.5" height="72"/><rect x="699.88" y="394.05" width="97.24" height="523.95"/><rect x="825.82" y="465.09" width="59.37" height="452.91"/><rect x="852.25" y="405.57" width="6.51" height="72"/><rect x="902.7" y="428.55" width="117.94" height="489.45"/><rect x="1048.3" y="582.27" width="76.11" height="335.73"/><rect x="1082.22" y="550.64" width="8.28" height="72"/><rect x="1152.88" y="478.85" width="131.85" height="439.15"/><rect x="1312.59" y="519.59" width="95.75" height="398.41"/><rect x="1421.58" y="571.55" width="32.95" height="346.45"/><rect x="1464.85" y="474.67" width="115.21" height="443.33"/><rect x="1600.29" y="464.55" width="109.1" height="453.45"/><rect x="1648.54" y="431.57" width="12.59" height="72"/></g><g fill="#03030a" opacity="0.95"><rect x="-80" y="576.95" width="112.23" height="395.05"/><rect x="57.73" y="641.24" width="37.22" height="330.76"/><rect x="122.4" y="546.31" width="115.59" height="425.69"/><rect x="245.15" y="554.05" width="68.01" height="417.95"/><rect x="275.82" y="516.56" width="6.66" height="72"/><rect x="329.96" y="503.46" width="82.06" height="468.54"/><rect x="428.17" y="476.22" width="98.19" height="495.78"/><rect x="540.27" y="514.66" width="40.14" height="457.34"/><rect x="594.87" y="615.22" width="132.69" height="356.78"/><rect x="747.02" y="557.08" width="130.74" height="414.92"/><rect x="896.49" y="507.96" width="132.2" height="464.04"/><rect x="1037.5" y="473.44" width="141.36" height="498.56"/><rect x="1185.42" y="576.56" width="92.6" height="395.44"/><rect x="1225.27" y="524.48" width="12.9" height="72"/><rect x="1308.19" y="553.95" width="79.88" height="418.05"/><rect x="1343.07" y="516.1" width="10.13" height="72"/><rect x="1419.59" y="483.59" width="139.43" height="488.41"/><rect x="1588.28" y="571.75" width="38.24" height="400.25"/><rect x="1647.14" y="495.26" width="73.48" height="476.74"/><rect x="1680.84" y="463.36" width="6.08" height="72"/></g>
<ellipse cx="1256.63" cy="313.19" rx="880" ry="5.4" fill="url(#flareG)" opacity="0.5"/><circle cx="1256.63" cy="313.19" r="18" fill="#5ee0f0" opacity="0.35"/>
<rect x="0" y="0" width="1600" height="900" fill="#ff6fbe" opacity="0.05" style="mix-blend-mode:overlay"/>
<rect x="0" y="0" width="1600" height="900" fill="url(#dust)"/><rect x="0" y="0" width="1600" height="900" fill="url(#scan)"/>
<rect x="0" y="0" width="1600" height="900" fill="url(#vig)"/>

</svg>