<svg xmlns="http://www.w3.org/2000/svg" viewBox="0 0 1600 900" width="1600" height="900" preserveAspectRatio="xMidYMid slice" role="img" aria-label="Cinematic placeholder frame">
<defs><linearGradient id="sky" x1="0" y1="0" x2="0" y2="1"><stop offset="0%" stop-color="#03040c"/><stop offset="42%" stop-color="#0a0e22"/><stop offset="78%" stop-color="#1a2350"/><stop offset="100%" stop-color="#03040c"/></linearGradient><radialGradient id="sun" cx="76.65%" cy="18.41%" r="62%"><stop offset="0%" stop-color="#dfe4ff" stop-opacity="0.72"/><stop offset="34%" stop-color="#8f9ff0" stop-opacity="0.28"/><stop offset="100%" stop-color="#8f9ff0" stop-opacity="0"/></radialGradient><linearGradient id="haze" x1="0" y1="0" x2="0" y2="1"><stop offset="0%" stop-color="#8f9ff0" stop-opacity="0.16"/><stop offset="100%" stop-color="#dfe4ff" stop-opacity="0"/></linearGradient><linearGradient id="water" x1="0" y1="0" x2="0" y2="1"><stop offset="0%" stop-color="#1a2350"/><stop offset="100%" stop-color="#03040c"/></linearGradient><linearGradient id="shaft" x1="0" y1="0" x2="0" y2="1"><stop offset="0%" stop-color="#dfe4ff" stop-opacity="0.85"/><stop offset="100%" stop-color="#8f9ff0" stop-opacity="0.35"/></linearGradient><linearGradient id="soft" x1="0" y1="0" x2="1" y2="1"><stop offset="0%" stop-color="#0a0e22"/><stop offset="60%" stop-color="#03040c"/><stop offset="100%" stop-color="#000000"/></linearGradient><radialGradient id="rim" cx="50%" cy="50%" r="50%"><stop offset="60%" stop-color="#8f9ff0" stop-opacity="0.34"/><stop offset="100%" stop-color="#8f9ff0" stop-opacity="0"/></radialGradient><radialGradient id="vig" cx="50%" cy="46%" r="72%"><stop offset="45%" stop-color="#000000" stop-opacity="0"/><stop offset="100%" stop-color="#000000" stop-opacity="0.9"/></radialGradient><linearGradient id="flareG" x1="0" y1="0" x2="1" y2="0"><stop offset="0%" stop-color="#dfe4ff" stop-opacity="0"/><stop offset="50%" stop-color="#dfe4ff" stop-opacity="0.5"/><stop offset="100%" stop-color="#dfe4ff" stop-opacity="0"/></linearGradient><pattern id="scan" width="4" height="4" patternUnits="userSpaceOnUse"><rect x="0" y="0" width="4" height="1" fill="#ffffff" opacity="0.035"/></pattern><pattern id="dust" width="7" height="7" patternUnits="userSpaceOnUse"><rect x="0" y="0" width="1" height="1" fill="#ffffff" opacity="0.07"/><rect x="4" y="3" width="1" height="1" fill="#000000" opacity="0.09"/><rect x="2" y="5" width="1" height="1" fill="#ffffff" opacity="0.045"/></pattern></defs>
<rect x="0" y="0" width="1600" height="900" fill="url(#sky)"/>
<rect x="0" y="0" width="1600" height="900" fill="url(#sun)"/>
<g fill="#dfe4ff"><circle cx="703.81" cy="411.17" r="45.53" opacity="0.28"/><circle cx="1310.93" cy="260.46" r="60.7" opacity="0.15"/><circle cx="1026.02" cy="615.8" r="32.43" opacity="0.23"/><circle cx="760.18" cy="397.82" r="42.35" opacity="0.26"/><circle cx="907.44" cy="616.63" r="50.21" opacity="0.1"/><circle cx="459.6" cy="460.66" r="17.31" opacity="0.28"/><circle cx="556.75" cy="735.68" r="75.99" opacity="0.09"/><circle cx="1118.97" cy="115.81" r="48.15" opacity="0.13"/><circle cx="910.03" cy="590.17" r="47.67" opacity="0.15"/><circle cx="203.73" cy="240.84" r="32.19" opacity="0.09"/><circle cx="690.28" cy="723.99" r="16.07" opacity="0.07"/><circle cx="403.31" cy="25.54" r="50.28" opacity="0.25"/><circle cx="1089.82" cy="564.43" r="20.29" opacity="0.17"/><circle cx="1077.29" cy="506.97" r="31.68" opacity="0.08"/><circle cx="49.56" cy="134.45" r="46.43" opacity="0.21"/><circle cx="57.3" cy="554.19" r="60.48" opacity="0.14"/><circle cx="1105.64" cy="296.75" r="34.52" opacity="0.09"/><circle cx="1528.97" cy="209.18" r="27.22" opacity="0.2"/><circle cx="672.86" cy="440.21" r="48.16" opacity="0.11"/><circle cx="377.32" cy="519.63" r="54.38" opacity="0.24"/><circle cx="173.76" cy="310.96" r="32.58" opacity="0.13"/><circle cx="74.65" cy="529.7" r="34.26" opacity="0.27"/></g><circle cx="783.79" cy="360" r="278.55" fill="url(#rim)" opacity="0.6"/><g fill="#03040c" opacity="0.96"><ellipse cx="783.79" cy="360" rx="140.91" ry="163.85"/><path d="M 374.16 900 C 423.32 573.01 1144.26 573.01 1193.42 900 Z"/></g><path d="M 642.88 360 A 140.91 163.85 0 0 1 783.79 196.15" fill="none" stroke="#8f9ff0" stroke-width="11.47" opacity="0.55"/>
<ellipse cx="1226.38" cy="165.72" rx="880" ry="5.4" fill="url(#flareG)" opacity="0.5"/><circle cx="1226.38" cy="165.72" r="18" fill="#dfe4ff" opacity="0.35"/>
<rect x="0" y="0" width="1600" height="900" fill="#8f9ff0" opacity="0.05" style="mix-blend-mode:overlay"/>
<rect x="0" y="0" width="1600" height="900" fill="url(#dust)"/><rect x="0" y="0" width="1600" height="900" fill="url(#scan)"/>
<rect x="0" y="0" width="1600" height="900" fill="url(#vig)"/>

</svg>