<svg xmlns="http://www.w3.org/2000/svg" viewBox="0 0 2000 1125" width="2000" height="1125" preserveAspectRatio="xMidYMid slice" role="img" aria-label="Cinematic placeholder frame">
<defs><linearGradient id="sky" x1="0" y1="0" x2="0" y2="1"><stop offset="0%" stop-color="#03060a"/><stop offset="42%" stop-color="#0a1420"/><stop offset="78%" stop-color="#1b3346"/><stop offset="100%" stop-color="#03060a"/></linearGradient><radialGradient id="sun" cx="40.5%" cy="23.43%" r="62%"><stop offset="0%" stop-color="#e8f5ff" stop-opacity="0.72"/><stop offset="34%" stop-color="#9fc4d8" stop-opacity="0.28"/><stop offset="100%" stop-color="#9fc4d8" stop-opacity="0"/></radialGradient><linearGradient id="haze" x1="0" y1="0" x2="0" y2="1"><stop offset="0%" stop-color="#9fc4d8" stop-opacity="0.16"/><stop offset="100%" stop-color="#e8f5ff" stop-opacity="0"/></linearGradient><linearGradient id="water" x1="0" y1="0" x2="0" y2="1"><stop offset="0%" stop-color="#1b3346"/><stop offset="100%" stop-color="#03060a"/></linearGradient><linearGradient id="shaft" x1="0" y1="0" x2="0" y2="1"><stop offset="0%" stop-color="#e8f5ff" stop-opacity="0.85"/><stop offset="100%" stop-color="#9fc4d8" stop-opacity="0.35"/></linearGradient><linearGradient id="soft" x1="0" y1="0" x2="1" y2="1"><stop offset="0%" stop-color="#0a1420"/><stop offset="60%" stop-color="#03060a"/><stop offset="100%" stop-color="#000000"/></linearGradient><radialGradient id="rim" cx="50%" cy="50%" r="50%"><stop offset="60%" stop-color="#9fc4d8" stop-opacity="0.34"/><stop offset="100%" stop-color="#9fc4d8" stop-opacity="0"/></radialGradient><radialGradient id="vig" cx="50%" cy="46%" r="72%"><stop offset="45%" stop-color="#000000" stop-opacity="0"/><stop offset="100%" stop-color="#000000" stop-opacity="1"/></radialGradient><linearGradient id="flareG" x1="0" y1="0" x2="1" y2="0"><stop offset="0%" stop-color="#e8f5ff" stop-opacity="0"/><stop offset="50%" stop-color="#e8f5ff" stop-opacity="0.5"/><stop offset="100%" stop-color="#e8f5ff" stop-opacity="0"/></linearGradient><pattern id="scan" width="4" height="4" patternUnits="userSpaceOnUse"><rect x="0" y="0" width="4" height="1" fill="#ffffff" opacity="0.035"/></pattern><pattern id="dust" width="7" height="7" patternUnits="userSpaceOnUse"><rect x="0" y="0" width="1" height="1" fill="#ffffff" opacity="0.07"/><rect x="4" y="3" width="1" height="1" fill="#000000" opacity="0.09"/><rect x="2" y="5" width="1" height="1" fill="#ffffff" opacity="0.045"/></pattern></defs>
<rect x="0" y="0" width="2000" height="1125" fill="url(#sky)"/>
<rect x="0" y="0" width="2000" height="1125" fill="url(#sun)"/>
<rect x="0" y="393.75" width="2000" height="450" fill="url(#haze)" opacity="0.5"/><path d="M 0 529.48 C 142.86 529.48 142.86 399.42 285.71 399.42 C 428.57 399.42 428.57 361.01 571.43 361.01 C 714.29 361.01 714.29 489.63 857.14 489.63 C 1000 489.63 1000 505.25 1142.86 505.25 C 1285.71 505.25 1285.71 555.95 1428.57 555.95 C 1571.43 555.95 1571.43 511.91 1714.29 511.91 C 1857.14 511.91 1857.14 477.72 2000 477.72 L 2000 1125 L 0 1125 Z" fill="#0a1420" opacity="0.45"/><path d="M 0 590.67 C 125 590.67 125 501.98 250 501.98 C 375 501.98 375 547.43 500 547.43 C 625 547.43 625 590.74 750 590.74 C 875 590.74 875 661.11 1000 661.11 C 1125 661.11 1125 505.24 1250 505.24 C 1375 505.24 1375 628.52 1500 628.52 C 1625 628.52 1625 497.6 1750 497.6 C 1875 497.6 1875 492.78 2000 492.78 L 2000 1125 L 0 1125 Z" fill="#1b3346" opacity="0.62"/><path d="M 0 639.15 C 111.11 639.15 111.11 753.4 222.22 753.4 C 333.33 753.4 333.33 745.8 444.44 745.8 C 555.56 745.8 555.56 640.11 666.67 640.11 C 777.78 640.11 777.78 720.91 888.89 720.91 C 1000 720.91 1000 630.15 1111.11 630.15 C 1222.22 630.15 1222.22 622.64 1333.33 622.64 C 1444.44 622.64 1444.44 711.1 1555.56 711.1 C 1666.67 711.1 1666.67 744.46 1777.78 744.46 C 1888.89 744.46 1888.89 635.7 2000 635.7 L 2000 1125 L 0 1125 Z" fill="#0a1420" opacity="0.79"/><path d="M 0 789.45 C 100 789.45 100 834.55 200 834.55 C 300 834.55 300 785.66 400 785.66 C 500 785.66 500 834.09 600 834.09 C 700 834.09 700 785.66 800 785.66 C 900 785.66 900 845.89 1000 845.89 C 1100 845.89 1100 847.72 1200 847.72 C 1300 847.72 1300 777.7 1400 777.7 C 1500 777.7 1500 773.37 1600 773.37 C 1700 773.37 1700 836.04 1800 836.04 C 1900 836.04 1900 865.42 2000 865.42 L 2000 1125 L 0 1125 Z" fill="#03060a" opacity="0.96"/>
<ellipse cx="809.94" cy="263.58" rx="1100" ry="6.75" fill="url(#flareG)" opacity="0.5"/><circle cx="809.94" cy="263.58" r="22.5" fill="#e8f5ff" opacity="0.35"/>
<rect x="0" y="0" width="2000" height="1125" fill="#9fc4d8" opacity="0.05" style="mix-blend-mode:overlay"/>
<rect x="0" y="0" width="2000" height="1125" fill="url(#dust)"/><rect x="0" y="0" width="2000" height="1125" fill="url(#scan)"/>
<rect x="0" y="0" width="2000" height="1125" fill="url(#vig)"/>
<rect x="0" y="0" width="2000" height="95.63" fill="#000"/><rect x="0" y="1029.38" width="2000" height="95.63" fill="#000"/>
</svg>