<svg xmlns="http://www.w3.org/2000/svg" viewBox="0 0 1600 900" width="1600" height="900" preserveAspectRatio="xMidYMid slice" role="img" aria-label="Cinematic placeholder frame">
<defs><linearGradient id="sky" x1="0" y1="0" x2="0" y2="1"><stop offset="0%" stop-color="#121110"/><stop offset="42%" stop-color="#1b1a17"/><stop offset="78%" stop-color="#26241f"/><stop offset="100%" stop-color="#121110"/></linearGradient><radialGradient id="sun" cx="33.36%" cy="29.75%" r="62%"><stop offset="0%" stop-color="#efe9dc" stop-opacity="0.72"/><stop offset="34%" stop-color="#bdb5a5" stop-opacity="0.28"/><stop offset="100%" stop-color="#bdb5a5" stop-opacity="0"/></radialGradient><linearGradient id="haze" x1="0" y1="0" x2="0" y2="1"><stop offset="0%" stop-color="#bdb5a5" stop-opacity="0.16"/><stop offset="100%" stop-color="#efe9dc" stop-opacity="0"/></linearGradient><linearGradient id="water" x1="0" y1="0" x2="0" y2="1"><stop offset="0%" stop-color="#26241f"/><stop offset="100%" stop-color="#121110"/></linearGradient><linearGradient id="shaft" x1="0" y1="0" x2="0" y2="1"><stop offset="0%" stop-color="#efe9dc" stop-opacity="0.85"/><stop offset="100%" stop-color="#bdb5a5" stop-opacity="0.35"/></linearGradient><linearGradient id="soft" x1="0" y1="0" x2="1" y2="1"><stop offset="0%" stop-color="#1b1a17"/><stop offset="60%" stop-color="#121110"/><stop offset="100%" stop-color="#000000"/></linearGradient><radialGradient id="rim" cx="50%" cy="50%" r="50%"><stop offset="60%" stop-color="#bdb5a5" stop-opacity="0.34"/><stop offset="100%" stop-color="#bdb5a5" stop-opacity="0"/></radialGradient><radialGradient id="vig" cx="50%" cy="46%" r="72%"><stop offset="45%" stop-color="#000000" stop-opacity="0"/><stop offset="100%" stop-color="#000000" stop-opacity="0.5"/></radialGradient><linearGradient id="flareG" x1="0" y1="0" x2="1" y2="0"><stop offset="0%" stop-color="#efe9dc" stop-opacity="0"/><stop offset="50%" stop-color="#efe9dc" stop-opacity="0.5"/><stop offset="100%" stop-color="#efe9dc" stop-opacity="0"/></linearGradient><pattern id="scan" width="4" height="4" patternUnits="userSpaceOnUse"><rect x="0" y="0" width="4" height="1" fill="#ffffff" opacity="0.035"/></pattern><pattern id="dust" width="7" height="7" patternUnits="userSpaceOnUse"><rect x="0" y="0" width="1" height="1" fill="#ffffff" opacity="0.07"/><rect x="4" y="3" width="1" height="1" fill="#000000" opacity="0.09"/><rect x="2" y="5" width="1" height="1" fill="#ffffff" opacity="0.045"/></pattern></defs>
<rect x="0" y="0" width="1600" height="900" fill="url(#sky)"/>
<rect x="0" y="0" width="1600" height="900" fill="url(#sun)"/>
<rect x="0" y="0" width="1600" height="900" fill="#1b1a17"/><g fill="#efe9dc"><rect x="1317.44" y="864.8" width="2.58" height="2.61" opacity="0.07"/><rect x="1134.9" y="275.38" width="2.95" height="1.75" opacity="0.02"/><rect x="737.76" y="312.38" width="2.16" height="2.38" opacity="0.03"/><rect x="918.01" y="792.08" width="1.64" height="2.85" opacity="0.04"/><rect x="1265.33" y="647.82" width="1.32" height="1.97" opacity="0.02"/><rect x="1572.34" y="336.77" width="2.66" height="2.45" opacity="0.05"/><rect x="820.08" y="155.07" width="1.26" height="2.22" opacity="0.05"/><rect x="513.97" y="157.73" width="1.34" height="1.85" opacity="0.06"/><rect x="1473.92" y="569.45" width="2.75" height="1.73" opacity="0.07"/><rect x="1527.63" y="848.73" width="1.17" height="1.41" opacity="0.04"/><rect x="1491.67" y="274.5" width="2.75" height="2.21" opacity="0.06"/><rect x="1175.06" y="297.82" width="2.26" height="1.19" opacity="0.03"/><rect x="1564.05" y="637.17" width="2.24" height="2.67" opacity="0.04"/><rect x="735.32" y="340.78" width="2.19" height="1.87" opacity="0.06"/><rect x="517.16" y="737.48" width="3" height="1.04" opacity="0.03"/><rect x="1152.07" y="360.29" width="2.37" height="1.39" opacity="0.06"/><rect x="402.95" y="543.55" width="2.85" height="2.14" opacity="0.03"/><rect x="485.62" y="543.1" width="2.83" height="1.96" opacity="0.07"/><rect x="155.3" y="109.47" width="2.71" height="1.64" opacity="0.06"/><rect x="1488.23" y="400.5" width="2.93" height="2.92" opacity="0.03"/><rect x="1311.2" y="163.98" width="2.75" height="1.75" opacity="0.03"/><rect x="562.21" y="122.81" width="2.65" height="2.75" opacity="0.02"/><rect x="1129.75" y="336.43" width="1.16" height="1.42" opacity="0.03"/><rect x="240.67" y="503.47" width="2.55" height="1.25" opacity="0.06"/><rect x="1485.28" y="713.98" width="2.62" height="2.69" opacity="0.05"/><rect x="825.46" y="587.14" width="2.3" height="1.77" opacity="0.05"/><rect x="288" y="212.79" width="1.09" height="2.81" opacity="0.05"/><rect x="1281.67" y="413.31" width="2.08" height="1.71" opacity="0.06"/><rect x="301.05" y="530.15" width="1.82" height="1.49" opacity="0.06"/><rect x="255.74" y="669.18" width="2.35" height="2.6" opacity="0.06"/><rect x="790.8" y="320.42" width="2.6" height="1.3" opacity="0.02"/><rect x="360.73" y="153.95" width="2.07" height="2.97" opacity="0.05"/><rect x="1227.65" y="235.98" width="2.15" height="1.37" opacity="0.04"/><rect x="1239.53" y="428.76" width="2.99" height="2.59" opacity="0.03"/><rect x="1480.85" y="78.44" width="1.54" height="2.25" opacity="0.06"/><rect x="1316.43" y="532.12" width="2.1" height="1.62" opacity="0.05"/><rect x="1417.5" y="286.54" width="1.6" height="1.18" opacity="0.03"/><rect x="872.91" y="791.1" width="2.3" height="2.21" opacity="0.04"/><rect x="1105.13" y="245.3" width="2.63" height="1.09" opacity="0.06"/><rect x="1409.29" y="13.3" width="2.57" height="2.24" opacity="0.03"/><rect x="135.79" y="373.67" width="1.67" height="2.14" opacity="0.04"/><rect x="1403.48" y="598.25" width="1.75" height="2.8" opacity="0.06"/><rect x="1138.17" y="102.51" width="2.46" height="1.19" opacity="0.02"/><rect x="1311.66" y="322.67" width="1.17" height="2.5" opacity="0.03"/><rect x="1229.47" y="166.13" width="1.85" height="1.56" opacity="0.03"/><rect x="1216.61" y="481.63" width="1.72" height="2.5" opacity="0.07"/><rect x="1397.03" y="328.14" width="2.8" height="1.45" opacity="0.05"/><rect x="18.18" y="632.81" width="1.14" height="2.09" opacity="0.02"/><rect x="388.29" y="312.96" width="1.14" height="2.89" opacity="0.04"/><rect x="1044.03" y="794.66" width="2.98" height="1.96" opacity="0.03"/><rect x="1520.43" y="726.94" width="1.75" height="1.7" opacity="0.03"/><rect x="734.23" y="863.76" width="1.17" height="2" opacity="0.06"/><rect x="927.19" y="391.17" width="2.27" height="1.41" opacity="0.04"/><rect x="933.66" y="721.6" width="2.13" height="1.2" opacity="0.04"/><rect x="857.08" y="599.83" width="2.34" height="2.62" opacity="0.05"/><rect x="284.6" y="87.9" width="1.76" height="2.4" opacity="0.05"/><rect x="110.48" y="219.2" width="2.05" height="1.16" opacity="0.05"/><rect x="128.84" y="415.87" width="2.39" height="2.44" opacity="0.04"/><rect x="316.74" y="524.26" width="1.76" height="2.02" opacity="0.04"/><rect x="1252.7" y="513.87" width="1.72" height="1.6" opacity="0.03"/><rect x="1138.05" y="165.98" width="2.34" height="1.57" opacity="0.07"/><rect x="1489.01" y="360.52" width="2.24" height="1.63" opacity="0.05"/><rect x="1593.57" y="411.19" width="1.35" height="1.32" opacity="0.04"/><rect x="1539.44" y="760.88" width="2.48" height="1.02" opacity="0.05"/><rect x="435.98" y="48.33" width="2.34" height="1.54" opacity="0.05"/><rect x="1083.4" y="300.48" width="2" height="2.27" opacity="0.04"/><rect x="1493.44" y="516.75" width="2.83" height="2.64" opacity="0.06"/><rect x="422.6" y="14.88" width="1.14" height="2.82" opacity="0.06"/><rect x="1170.44" y="210.71" width="2.91" height="2.99" opacity="0.02"/><rect x="470.73" y="323.23" width="1.74" height="2.82" opacity="0.06"/><rect x="1175.11" y="203.17" width="2.36" height="2.79" opacity="0.07"/><rect x="520.36" y="445.29" width="2.66" height="1.04" opacity="0.02"/><rect x="106.53" y="88.55" width="1.63" height="1.36" opacity="0.03"/><rect x="246.57" y="583.45" width="2.47" height="2.42" opacity="0.04"/><rect x="1556.24" y="136.87" width="1.14" height="2.15" opacity="0.03"/><rect x="578.7" y="744.99" width="1.26" height="2.73" opacity="0.04"/><rect x="1085.44" y="30.58" width="1.56" height="1.65" opacity="0.04"/><rect x="383.41" y="407.06" width="2.74" height="2.07" opacity="0.05"/><rect x="613.22" y="459.64" width="2.82" height="2.32" opacity="0.07"/><rect x="1037.11" y="650.27" width="1.09" height="1.51" opacity="0.02"/><rect x="1506.1" y="396.78" width="2.88" height="2.06" opacity="0.04"/><rect x="1102.55" y="870.5" width="2.33" height="1.55" opacity="0.06"/><rect x="203.12" y="827.38" width="1.44" height="2.82" opacity="0.04"/><rect x="427.2" y="580.84" width="2.27" height="1.26" opacity="0.04"/><rect x="1538.3" y="384.01" width="2.42" height="1.53" opacity="0.06"/><rect x="531.18" y="606.63" width="2.33" height="2.25" opacity="0.06"/><rect x="355.21" y="184.64" width="1.93" height="2.03" opacity="0.05"/><rect x="1216.3" y="728.97" width="1.68" height="2.66" opacity="0.04"/><rect x="1393.12" y="59.46" width="1.09" height="1.92" opacity="0.03"/><rect x="1241.62" y="509.03" width="2.45" height="2.42" opacity="0.03"/></g><rect x="63" y="63" width="1474" height="774" fill="none" stroke="#efe9dc" stroke-width="3.52" opacity="0.34"/><g stroke="#efe9dc" stroke-width="4.8" opacity="0.6"><line x1="63" y1="63" x2="108" y2="63"/><line x1="63" y1="63" x2="63" y2="108"/><line x1="1537" y1="63" x2="1492" y2="63"/><line x1="1537" y1="63" x2="1537" y2="108"/><line x1="63" y1="837" x2="108" y2="837"/><line x1="63" y1="837" x2="63" y2="792"/><line x1="1537" y1="837" x2="1492" y2="837"/><line x1="1537" y1="837" x2="1537" y2="792"/></g><line x1="63" y1="517.59" x2="1537" y2="517.59" stroke="#efe9dc" stroke-width="3.52" opacity="0.45"/><g stroke="#efe9dc" stroke-width="2.56" opacity="0.2"><line x1="823.99" y1="517.59" x2="774.99" y2="615.58"/><line x1="149" y1="517.59" x2="114.1" y2="587.38"/><line x1="82.78" y1="517.59" x2="43.21" y2="596.74"/><line x1="1241.58" y1="517.59" x2="1198.4" y2="603.95"/><line x1="613.44" y1="517.59" x2="584.98" y2="574.51"/><line x1="522.36" y1="517.59" x2="479.89" y2="602.53"/><line x1="1262.29" y1="517.59" x2="1217.26" y2="607.64"/><line x1="1491.88" y1="517.59" x2="1454.79" y2="591.77"/><line x1="1474.26" y1="517.59" x2="1425.87" y2="614.36"/><line x1="969.25" y1="517.59" x2="925.35" y2="605.39"/><line x1="1226.69" y1="517.59" x2="1181.23" y2="608.5"/><line x1="1365.5" y1="517.59" x2="1349.57" y2="549.44"/><line x1="1394.1" y1="517.59" x2="1351.46" y2="602.88"/><line x1="1351.87" y1="517.59" x2="1312.36" y2="596.6"/><line x1="507.49" y1="517.59" x2="474.79" y2="582.99"/><line x1="1271.86" y1="517.59" x2="1237.57" y2="586.16"/><line x1="1015.73" y1="517.59" x2="986.91" y2="575.22"/><line x1="1378.12" y1="517.59" x2="1346.82" y2="580.18"/><line x1="118.62" y1="517.59" x2="73.48" y2="607.87"/><line x1="1083.97" y1="517.59" x2="1068.9" y2="547.73"/><line x1="1131.61" y1="517.59" x2="1085.5" y2="609.82"/><line x1="186.91" y1="517.59" x2="139.9" y2="611.61"/><line x1="1092.89" y1="517.59" x2="1055.7" y2="591.97"/><line x1="295.4" y1="517.59" x2="249.57" y2="609.26"/><line x1="1053.59" y1="517.59" x2="1009.87" y2="605.03"/><line x1="1249.82" y1="517.59" x2="1222.41" y2="572.4"/></g><g stroke="#efe9dc" stroke-width="4.16" fill="none" opacity="0.7"><circle cx="480" cy="272.46" r="33.34"/><line x1="480" y1="305.8" x2="480" y2="448.95"/><line x1="421.17" y1="380.32" x2="536.87" y2="366.59"/><line x1="480" y1="448.95" x2="432.94" y2="517.59"/><line x1="480" y1="448.95" x2="525.1" y2="517.59"/></g><g stroke="#efe9dc" stroke-width="4.16" fill="none" opacity="0.7"><circle cx="960" cy="314.07" r="27.68"/><line x1="960" y1="341.75" x2="960" y2="460.6"/><line x1="911.16" y1="403.62" x2="1007.21" y2="392.22"/><line x1="960" y1="460.6" x2="920.93" y2="517.59"/><line x1="960" y1="460.6" x2="997.45" y2="517.59"/></g><g stroke="#efe9dc" stroke-width="4.48" fill="none" opacity="0.6"><line x1="384" y1="734.27" x2="1120" y2="734.27"/><polyline points="1088,719.87 1120,734.27 1088,748.67"/></g>

<rect x="0" y="0" width="1600" height="900" fill="#bdb5a5" opacity="0.05" style="mix-blend-mode:overlay"/>
<rect x="0" y="0" width="1600" height="900" fill="url(#dust)"/><rect x="0" y="0" width="1600" height="900" fill="url(#scan)"/>
<rect x="0" y="0" width="1600" height="900" fill="url(#vig)"/>

</svg>